<?xml version="1.0" encoding="UTF-8" standalone="no"?>
<svg
   width="24px"
   height="24px"
   viewBox="0 0 24 24"
   fill="none"
   version="1.1"
   id="svg4"
   sodipodi:docname="cart.svg"
   inkscape:version="1.1 (c4e8f9ed74, 2021-05-24)"
   xmlns:inkscape="http://www.inkscape.org/namespaces/inkscape"
   xmlns:sodipodi="http://sodipodi.sourceforge.net/DTD/sodipodi-0.dtd"
   xmlns="http://www.w3.org/2000/svg"
   xmlns:svg="http://www.w3.org/2000/svg">
  <defs
     id="defs8" />
  <sodipodi:namedview
     id="namedview6"
     pagecolor="#ffffff"
     bordercolor="#666666"
     borderopacity="1.0"
     inkscape:pageshadow="2"
     inkscape:pageopacity="0.0"
     inkscape:pagecheckerboard="0"
     showgrid="false"
     inkscape:zoom="32"
     inkscape:cx="8.828125"
     inkscape:cy="13.046875"
     inkscape:window-width="1920"
     inkscape:window-height="1050"
     inkscape:window-x="1920"
     inkscape:window-y="0"
     inkscape:window-maximized="1"
     inkscape:current-layer="svg4" />
  <path
     d="M17 17C15.8954 17 15 17.8954 15 19C15 20.1046 15.8954 21 17 21C18.1046 21 19 20.1046 19 19C19 17.8954 18.1046 17 17 17ZM17 17H7.36729C6.86964 17 6.44772 16.6341 6.37735 16.1414L6.07143 14M2 3H4.5L4.78571 5M4.78571 5H5H21L18 14H6.5H6.07143M4.78571 5L6.07143 14M11 19C11 20.1046 10.1046 21 9 21C7.89543 21 7 20.1046 7 19C7 17.8954 7.89543 17 9 17C10.1046 17 11 17.8954 11 19Z"
     stroke="#001A72"
     stroke-width="1.5"
     stroke-linecap="round"
     stroke-linejoin="round"
     id="path2" />
  <path
     style="opacity:0.75;fill:#ffffff;stroke-width:0.0363636"
     d="M 8.4499738,21.669564 C 7.1358436,21.387142 6.2077985,20.190926 6.2821371,18.875301 6.3048505,18.473329 6.38634,18.143193 6.5419393,17.822772 l 0.1174494,-0.24186 -0.1614982,-0.09464 C 6.1265422,17.268643 5.8591865,16.933297 5.7282989,16.520965 5.6833215,16.379274 5.31292,13.888525 4.763968,10.036364 4.2737511,6.5963636 3.8726787,3.7695455 3.8726959,3.7545455 c 1.73e-5,-0.015 -0.4504942,-0.027273 -1.0011366,-0.027273 -1.1048436,0 -1.1653007,-0.00993 -1.391214,-0.2285857 C 1.4058379,3.4265744 1.3396919,3.3106455 1.3050377,3.1914391 1.2550763,3.019578 1.2550763,2.980422 1.3050377,2.8085609 1.36798,2.5920469 1.5253584,2.4166361 1.7351957,2.3291157 1.9363401,2.2452209 4.5726445,2.2451277 4.7733989,2.3290083 5.1169262,2.4725431 5.1853335,2.6257169 5.3126036,3.5363636 l 0.1029128,0.7363637 h 7.8774316 7.877431 l 0.160265,0.08461 c 0.214703,0.11335 0.365615,0.3326935 0.387808,0.5636609 0.01572,0.1636026 -0.12724,0.6144159 -1.514327,4.7752844 -0.842427,2.5270444 -1.563323,4.6465174 -1.60199,4.7099404 -0.03867,0.06342 -0.149057,0.161604 -0.245311,0.218181 l -0.175006,0.102869 -5.627273,0.0095 c -3.1880741,0.0054 -5.6272723,0.02335 -5.6272723,0.04139 0,0.01752 0.041637,0.324132 0.092527,0.681368 0.083696,0.587527 0.1012425,0.657328 0.1838462,0.731337 l 0.091319,0.08182 h 4.9813231 c 4.397777,0 5.014158,0.0067 5.261609,0.05746 1.473904,0.302176 2.432039,1.7438 2.131912,3.207706 -0.300987,1.468103 -1.746454,2.433311 -3.195742,2.133952 -1.685654,-0.348181 -2.641707,-2.121068 -1.998044,-3.705134 0.04819,-0.11859 0.08761,-0.220978 0.08761,-0.22753 0,-0.0066 -0.703636,-0.01191 -1.563636,-0.01191 -0.86,0 -1.563636,0.0054 -1.563636,0.01191 0,0.0066 0.03943,0.10894 0.08761,0.22753 0.4863,1.196793 0.0661,2.563772 -1.014196,3.29932 -0.5806863,0.395376 -1.3743059,0.550851 -2.059807,0.403529 z m 1.1167909,-1.541118 c 0.2659146,-0.130909 0.4598983,-0.332709 0.5911693,-0.614991 0.07873,-0.169288 0.09517,-0.257546 0.09582,-0.51422 7.06e-4,-0.277146 -0.01173,-0.335272 -0.117746,-0.550632 -0.1381865,-0.280696 -0.3357215,-0.473148 -0.6225571,-0.606537 -0.2931516,-0.136326 -0.7337582,-0.136326 -1.0269098,0 -0.2868356,0.133389 -0.4843706,0.325841 -0.6225567,0.606537 -0.1060211,0.21536 -0.1184506,0.273486 -0.1177466,0.550632 6.509e-4,0.255633 0.017201,0.345145 0.094586,0.511515 0.3124448,0.67173 1.0673662,0.941909 1.7259371,0.617696 z m 8.0000003,0 c 0.265914,-0.130909 0.459898,-0.332709 0.591169,-0.614991 0.07872,-0.169288 0.09517,-0.257546 0.09582,-0.51422 7.06e-4,-0.277146 -0.01173,-0.335272 -0.117746,-0.550632 -0.138187,-0.280696 -0.335721,-0.473148 -0.622557,-0.606537 -0.293152,-0.136326 -0.733758,-0.136326 -1.02691,0 -0.286836,0.133389 -0.48437,0.325841 -0.622557,0.606537 -0.106021,0.21536 -0.11845,0.273486 -0.117746,0.550632 6.51e-4,0.255633 0.0172,0.345145 0.09459,0.511515 0.312444,0.67173 1.067366,0.941909 1.725937,0.617696 z M 18.715371,9.5454545 c 0.67681,-2.03 1.239741,-3.7195454 1.250957,-3.7545454 0.01937,-0.06046 -0.338224,-0.063636 -7.16457,-0.063636 H 5.6167964 l 0.018306,0.081818 c 0.010068,0.045 0.2479084,1.7018182 0.5285339,3.6818182 0.2806254,1.9799997 0.5184792,3.6368717 0.528564,3.6819377 l 0.018336,0.08194 5.3871347,-0.0092 5.387134,-0.0092 z"
     id="path880" />
  <path
     style="opacity:0.75;fill:#ffffff;stroke-width:0.0363636"
     d="M 8.3448513,21.622545 C 7.4360542,21.377144 6.7253291,20.704676 6.4183593,19.799754 6.3603345,19.628702 6.3332811,19.44339 6.3201847,19.127273 c -0.0219,-0.528601 0.036312,-0.84714 0.2303928,-1.260719 0.073605,-0.156849 0.1271087,-0.290604 0.1188974,-0.297233 -0.00821,-0.0066 -0.1090444,-0.07359 -0.2240734,-0.148804 C 6.1784331,17.245958 5.9705956,17.009265 5.8388815,16.72979 5.7522036,16.545875 5.7071084,16.32727 5.5683142,15.418182 5.3369487,13.902761 4.937548,11.141501 4.3717113,7.1454545 l -0.4814369,-3.4 -0.9815008,-0.02742 C 2.3689481,3.7029529 1.8666465,3.6738806 1.7925479,3.6534291 1.5190455,3.5779412 1.2925063,3.2819112 1.2925063,3 c 0,-0.1559169 0.1042727,-0.3906112 0.2213747,-0.4982644 0.2158842,-0.1984649 0.2707359,-0.2051384 1.7043008,-0.2073517 1.4907581,-0.0023 1.5980213,0.01093 1.7813564,0.2197368 0.1361065,0.1550166 0.1990702,0.3748626 0.2901654,1.013152 0.039961,0.28 0.081867,0.5622728 0.093124,0.6272728 l 0.020468,0.1181818 7.8619884,3.418e-4 7.861989,3.418e-4 0.189253,0.1085394 c 0.265291,0.1521484 0.391584,0.3706021 0.363934,0.6295096 -0.01108,0.1036965 -0.167839,0.6467219 -0.348365,1.2067219 -0.448459,1.3911437 -2.517617,7.5644562 -2.660875,7.9386972 -0.106371,0.277878 -0.130845,0.312122 -0.302567,0.423332 l -0.186835,0.120997 -5.615073,0.02205 c -3.0882894,0.01212 -5.6239337,0.03091 -5.6347643,0.04174 -0.030909,0.03091 0.1391629,1.233646 0.1762531,1.246451 0.018224,0.0063 0.02539,0.03162 0.015924,0.05629 -0.00947,0.02467 0.02009,0.07876 0.065679,0.120211 0.082758,0.07524 0.090813,0.0754 5.0902912,0.09759 5.637389,0.02502 5.307194,0.0081 5.919267,0.303417 0.298448,0.143997 0.391695,0.213429 0.692976,0.515992 0.298329,0.299597 0.372117,0.39902 0.515853,0.69506 0.214096,0.440954 0.282684,0.729058 0.282684,1.187416 0,0.45499 -0.08928,0.828927 -0.298191,1.248948 -0.124757,0.250824 -0.219106,0.374601 -0.500501,0.656612 -0.29795,0.298602 -0.39539,0.371184 -0.692217,0.515623 -0.486095,0.23654 -0.766572,0.295649 -1.298441,0.273641 -0.751031,-0.03108 -1.25537,-0.253672 -1.792468,-0.791126 -0.34498,-0.345218 -0.505367,-0.59236 -0.668797,-1.03056 C 14.334693,19.577418 14.3295,19.537475 14.328413,19 c -0.0011,-0.545042 0.0028,-0.574575 0.117042,-0.895225 0.065,-0.182374 0.118181,-0.341919 0.118181,-0.354546 0,-0.01263 -0.703636,-0.02296 -1.563636,-0.02296 -0.86,0 -1.563636,0.01033 -1.563636,0.02296 0,0.01263 0.05279,0.172172 0.117304,0.354546 0.112257,0.317323 0.117297,0.355056 0.117139,0.877043 -1.46e-4,0.495945 -0.0091,0.57186 -0.09819,0.836364 -0.146133,0.433671 -0.332035,0.724168 -0.700254,1.094239 -0.267108,0.268452 -0.386864,0.359071 -0.637018,0.482031 -0.169439,0.08329 -0.4375059,0.184059 -0.5957052,0.223942 -0.3705309,0.09341 -0.9572549,0.0953 -1.2947865,0.0042 z m 1.2104905,-1.47144 c 0.2465666,-0.120633 0.4487822,-0.317193 0.5916312,-0.575084 0.09907,-0.178851 0.107572,-0.222948 0.107572,-0.557839 0,-0.324079 -0.011,-0.386041 -0.101138,-0.569588 -0.129601,-0.26391 -0.3547354,-0.489359 -0.6079525,-0.6088 C 9.3739716,17.758906 9.2961978,17.745455 9,17.745455 c -0.2961978,0 -0.3739716,0.01345 -0.5454545,0.09434 C 8.212772,17.953838 7.9978007,18.162615 7.8530265,18.42398 7.753,18.60456 7.7454545,18.644964 7.7454545,19 c 0,0.434471 0.04943,0.568635 0.3160837,0.85792 0.2871571,0.311528 0.5547356,0.419721 0.9969433,0.403103 0.2319152,-0.0087 0.3379621,-0.03218 0.4968603,-0.109918 z m 8.0000002,0 c 0.246566,-0.120633 0.448782,-0.317193 0.591631,-0.575084 0.09907,-0.178851 0.107572,-0.222948 0.107572,-0.557839 0,-0.324079 -0.011,-0.386041 -0.101138,-0.569588 -0.129601,-0.26391 -0.354735,-0.489359 -0.607952,-0.6088 -0.171483,-0.08089 -0.249257,-0.09434 -0.545455,-0.09434 -0.296198,0 -0.373972,0.01345 -0.545455,0.09434 -0.241773,0.114043 -0.456744,0.32282 -0.601518,0.584185 C 15.753,18.60456 15.745455,18.644964 15.745455,19 c 0,0.434471 0.04943,0.568635 0.316083,0.85792 0.287157,0.311528 0.554736,0.419721 0.996943,0.403103 0.231916,-0.0087 0.337963,-0.03218 0.496861,-0.109918 z M 18.742424,9.5363629 c 0.681667,-2.0450007 1.239394,-3.7384782 1.239394,-3.7632837 0,-0.035738 -1.49194,-0.04521 -7.186785,-0.045627 l -7.1867839,-5.258e-4 0.023062,0.1729002 c 0.012684,0.095095 0.2553327,1.7888095 0.5392196,3.7638095 l 0.5161579,3.5909089 h 5.4081714 5.408171 z"
     id="path896" />
  <path
     style="opacity:0.75;fill:#ffffff;stroke-width:0.0363636"
     d="M 8.2909091,21.586042 C 7.8069462,21.43714 7.4310727,21.206688 7.0859291,20.847257 6.8137767,20.563838 6.634376,20.288294 6.4810764,19.918254 6.36486,19.637727 6.3642935,19.633286 6.3639658,19 L 6.3636385,18.363636 6.518184,17.987074 c 0.085,-0.207109 0.1545455,-0.39059 0.1545455,-0.407736 0,-0.01714 -0.09468,-0.09547 -0.2104008,-0.174054 C 6.0392658,17.117989 5.8350716,16.799625 5.7260702,16.257371 5.6370102,15.814321 5.2757076,13.359602 4.5268592,8.1098349 4.1845717,5.7102441 3.9014562,3.7445141 3.8977137,3.7415462 3.8939712,3.7385782 3.4262111,3.7181345 2.8582468,3.6961157 1.7065914,3.6514685 1.6646378,3.6421563 1.4564831,3.3849743 1.3569703,3.2620229 1.3454545,3.2220939 1.3454545,3 c 0,-0.2229717 0.011315,-0.2617933 0.1129463,-0.3875338 0.2377704,-0.2941733 0.1817881,-0.2851935 1.7779628,-0.2851935 1.3456145,0 1.4256001,0.00372 1.5631565,0.072727 0.1646228,0.082584 0.2906679,0.2510948 0.350905,0.4691287 0.022649,0.081979 0.084373,0.4272349 0.1371647,0.7672349 l 0.095986,0.6181819 7.8718492,0.018182 7.871848,0.018182 0.172279,0.1012706 c 0.226836,0.1333399 0.354993,0.3231821 0.354993,0.5258581 0,0.085635 -0.04381,0.3150186 -0.09736,0.5097405 -0.134201,0.4879842 -2.859518,8.6472396 -2.959007,8.8588926 -0.05275,0.11223 -0.136359,0.209417 -0.243654,0.283237 l -0.163341,0.112383 -5.313771,0.03616 c -2.922575,0.01989 -5.456954,0.03415 -5.631954,0.0317 l -0.3181818,-0.0045 v 0.149763 c 0,0.204276 0.1004477,0.881814 0.1637542,1.104552 0.029201,0.10274 0.084091,0.201837 0.1262044,0.227847 0.058483,0.03612 0.9728298,0.0503 4.2468312,0.06587 4.224795,0.0201 5.967561,0.05505 6.2613,0.125583 0.08895,0.02136 0.301676,0.107334 0.472727,0.191058 0.254583,0.124609 0.374522,0.215196 0.661144,0.499343 0.380704,0.377417 0.563373,0.676723 0.7209,1.181203 0.111156,0.355978 0.112999,0.984523 0.004,1.381646 -0.212805,0.775678 -0.723563,1.389808 -1.438728,1.72991 -0.48623,0.231231 -0.666237,0.265978 -1.25959,0.243146 -0.768331,-0.02957 -1.169697,-0.201185 -1.722501,-0.73652 -0.338834,-0.328126 -0.512632,-0.580721 -0.681746,-0.990837 -0.110609,-0.268235 -0.116863,-0.309194 -0.12911,-0.845527 -0.01249,-0.54703 -0.0096,-0.573925 0.09913,-0.912852 0.0616,-0.192068 0.111999,-0.367977 0.111999,-0.390909 0,-0.0307 -0.412195,-0.04169 -1.563636,-0.04169 -1.151441,0 -1.563636,0.01099 -1.563636,0.04169 0,0.02293 0.05041,0.198841 0.112031,0.390909 0.108451,0.33806 0.111592,0.366641 0.0983,0.89467 -0.01566,0.622342 -0.0702,0.833758 -0.327934,1.271083 -0.213705,0.362621 -0.741071,0.876835 -1.058184,1.031794 -0.4980505,0.243375 -0.6139483,0.270639 -1.206037,0.283709 -0.4513953,0.01 -0.5830782,4.65e-4 -0.7636364,-0.05509 z m 1.2727273,-1.422207 c 0.2400127,-0.116163 0.4895406,-0.370375 0.6147456,-0.626284 0.09363,-0.191376 0.100318,-0.23382 0.08871,-0.563172 -0.01011,-0.286964 -0.02983,-0.391537 -0.101427,-0.538015 -0.126613,-0.259018 -0.4261781,-0.540235 -0.6744217,-0.633115 -0.2776608,-0.103886 -0.7048338,-0.103886 -0.9824946,0 -0.2637785,0.09869 -0.5684956,0.392614 -0.6961814,0.671517 -0.086888,0.189787 -0.09312,0.23587 -0.077744,0.574871 0.017827,0.393038 0.056705,0.508051 0.255284,0.755212 0.1379506,0.1717 0.3963884,0.355888 0.5863448,0.417886 0.2439494,0.07962 0.7652385,0.04852 0.98718,-0.0589 z m 7.9999996,0 c 0.240013,-0.116163 0.489541,-0.370375 0.614746,-0.626284 0.09363,-0.191376 0.100318,-0.23382 0.08871,-0.563172 -0.01011,-0.286964 -0.02982,-0.391537 -0.101427,-0.538015 -0.126613,-0.259018 -0.426178,-0.540235 -0.674422,-0.633115 -0.27766,-0.103886 -0.704834,-0.103886 -0.982494,0 -0.263779,0.09869 -0.568496,0.392614 -0.696182,0.671517 -0.08689,0.189787 -0.09312,0.23587 -0.07774,0.574871 0.01783,0.393038 0.0567,0.508051 0.255284,0.755212 0.13795,0.1717 0.396388,0.355888 0.586344,0.417886 0.24395,0.07962 0.765239,0.04852 0.98718,-0.0589 z M 18.754931,9.5346738 c 0.678354,-2.0359294 1.224336,-3.7252345 1.213294,-3.7540112 -0.01737,-0.045271 -0.987865,-0.052429 -7.202386,-0.05312 L 5.5835309,5.7267449 5.6017302,5.8270088 C 5.61174,5.882154 5.8482338,7.5227273 6.127272,9.4727273 6.4063105,11.422727 6.6439415,13.071417 6.6553411,13.136482 l 0.020726,0.118301 5.4227459,-0.0092 5.422747,-0.0092 z"
     id="path935" />
  <path
     style="opacity:0.75;fill:#ffffff;stroke-width:0.0363636"
     d="m 16.690909,21.618719 c -0.18,-0.01586 -0.400909,-0.04853 -0.490909,-0.0726 -0.290196,-0.07762 -0.641397,-0.290597 -0.946336,-0.573891 -0.367045,-0.340992 -0.617379,-0.691848 -0.76294,-1.069302 -0.106324,-0.275705 -0.111503,-0.314533 -0.117047,-0.877517 -0.0054,-0.548125 10e-4,-0.610336 0.09208,-0.895457 0.05383,-0.168524 0.09788,-0.32807 0.09788,-0.354545 0,-0.03919 -0.290493,-0.04814 -1.563636,-0.04814 -1.273143,0 -1.563636,0.0089 -1.563636,0.04814 0,0.02647 0.03882,0.177839 0.08626,0.336363 0.04744,0.158525 0.09728,0.370045 0.110755,0.470045 0.0387,0.287257 -0.03725,1.104475 -0.124259,1.337039 -0.235618,0.629745 -0.90911,1.307234 -1.5567177,1.565956 -0.2663768,0.106421 -0.3090724,0.1124 -0.8978578,0.12575 -0.6158215,0.01396 -0.6193502,0.01359 -0.9242226,-0.09794 C 7.4031418,21.246613 6.7997538,20.659312 6.5015473,19.927273 6.3833673,19.637163 6.38304,19.6346 6.3824298,18.994744 l -6.116e-4,-0.64162 0.1454545,-0.362547 c 0.08,-0.199401 0.1454546,-0.380611 0.1454546,-0.402688 0,-0.02208 -0.085909,-0.103742 -0.1909091,-0.181477 C 6.2536924,17.237524 6.0110015,16.980096 5.9272855,16.818206 5.7323309,16.441205 5.7776505,16.722394 4.6531205,8.9126342 4.2444685,6.0745829 3.9055483,3.7479725 3.8999645,3.7423888 3.8943808,3.736805 3.4809681,3.7138842 2.9812697,3.6914536 1.7788163,3.6374776 1.7136339,3.6254139 1.5181818,3.4206708 1.3675961,3.2629268 1.3636364,3.2524858 1.3636364,3.0131622 c 0,-0.2072621 0.015242,-0.2676111 0.097608,-0.3864653 0.1839848,-0.2654902 0.160952,-0.2616941 1.6660282,-0.2745779 0.74,-0.00633 1.4149222,-0.00125 1.4998272,0.011293 0.18244,0.026958 0.3489114,0.1561 0.4456459,0.3457152 0.040523,0.079431 0.1183727,0.4317134 0.186504,0.8439577 l 0.1169473,0.7076152 7.8858,0.024125 c 7.300046,0.022333 7.893142,0.028668 7.984629,0.08529 0.351819,0.217741 0.437208,0.4131716 0.353791,0.8097231 -0.07771,0.3694254 -0.943378,3.0050078 -2.526758,7.6928898 -0.28573,0.845957 -0.514294,1.464477 -0.566463,1.532916 -0.0481,0.0631 -0.141432,0.148093 -0.207403,0.188865 -0.118132,0.07301 -0.177896,0.07445 -3.955324,0.0951 -2.109458,0.01153 -4.6412873,0.03076 -5.6262873,0.04272 l -1.7909091,0.02176 1.455e-4,0.186592 c 1.818e-4,0.224846 0.089916,0.805042 0.1651174,1.067539 0.031451,0.109779 0.084111,0.205915 0.1246913,0.227633 0.046214,0.02473 1.6228862,0.05007 4.6083282,0.07407 5.230183,0.04203 5.730875,0.05827 6.101763,0.197871 0.373249,0.140491 0.549315,0.254632 0.866681,0.561858 0.635635,0.615326 0.903142,1.276438 0.847294,2.093987 -0.02714,0.397297 -0.08823,0.634079 -0.251878,0.976261 -0.249737,0.522192 -0.648653,0.938376 -1.152513,1.202403 -0.49885,0.261403 -0.900748,0.33326 -1.545994,0.276419 z M 9.553984,20.172984 c 0.2206505,-0.09931 0.503705,-0.382573 0.62862,-0.629081 0.0916,-0.180763 0.09682,-0.217024 0.08305,-0.577479 -0.0172,-0.4503 -0.07787,-0.600284 -0.3548285,-0.877247 C 9.6155738,17.793929 9.4871229,17.745455 9,17.745455 c -0.3944204,0 -0.4291087,0.0061 -0.6104873,0.106539 -0.2350029,0.130194 -0.4438356,0.350951 -0.5728629,0.605575 -0.090671,0.17893 -0.096051,0.216464 -0.082565,0.576007 0.01012,0.269833 0.033654,0.424157 0.078862,0.517144 0.1365807,0.280928 0.4471465,0.562872 0.739708,0.671537 0.2097854,0.07792 0.7812051,0.0498 1.0013298,-0.04927 z m 8,0 c 0.220651,-0.09931 0.503705,-0.382573 0.62862,-0.629081 0.0916,-0.180763 0.09681,-0.217024 0.08305,-0.577479 -0.0172,-0.4503 -0.07787,-0.600284 -0.354828,-0.877247 C 17.615574,17.793929 17.487123,17.745455 17,17.745455 c -0.39442,0 -0.429109,0.0061 -0.610487,0.106539 -0.235003,0.130194 -0.443836,0.350951 -0.572863,0.605575 -0.09067,0.17893 -0.09605,0.216464 -0.08257,0.576007 0.01012,0.269833 0.03366,0.424157 0.07886,0.517144 0.136581,0.280928 0.447147,0.562872 0.739708,0.671537 0.209786,0.07792 0.781205,0.0498 1.00133,-0.04927 z m 0.752335,-9.254802 c 0.822324,-2.4675064 1.675499,-5.0728327 1.675499,-5.1164436 0,-0.014289 -0.02045,-0.031353 -0.04545,-0.03792 -0.08134,-0.021366 -14.3545458,-0.037531 -14.3545458,-0.016258 0,0.047185 1.0553756,7.3501856 1.0730302,7.4251666 l 0.019264,0.08182 h 5.4267936 5.426793 z"
     id="path918" />
  <path
     style="opacity:0.75;fill:#ffffff;stroke-width:0.0363636"
     d="m 16.738819,21.613379 c -0.668292,-0.04363 -1.079689,-0.238943 -1.593628,-0.756597 -0.309975,-0.312214 -0.490644,-0.569421 -0.640144,-0.911327 -0.09803,-0.224196 -0.104016,-0.268603 -0.116278,-0.86263 -0.01213,-0.587413 -0.0071,-0.646067 0.08098,-0.945454 0.05165,-0.175554 0.0939,-0.339644 0.0939,-0.364644 -7e-6,-0.03566 -0.336983,-0.04545 -1.563645,-0.04545 -1.254545,0 -1.563636,0.0093 -1.563636,0.04703 0,0.02586 0.03925,0.18541 0.08723,0.354546 0.124015,0.4372 0.13619,0.576371 0.09592,1.096555 -0.05739,0.741416 -0.22542,1.094889 -0.785585,1.652598 -0.279263,0.278038 -0.389879,0.360051 -0.674879,0.500372 -0.1874792,0.0923 -0.4290137,0.184024 -0.5367435,0.20382 -0.3170931,0.05827 -1.1236528,0.04508 -1.3520731,-0.0221 C 7.539352,21.345123 6.8336458,20.699802 6.5045149,19.945455 6.4058455,19.719311 6.4008396,19.68046 6.3887345,19.046914 l -0.012652,-0.662178 0.1562004,-0.407522 0.1562,-0.407523 -0.1442414,-0.111447 C 6.2637542,17.241528 5.9759215,16.923172 5.8903222,16.734981 5.7340993,16.391523 5.7064938,16.215218 4.5088204,7.9119065 4.1787332,5.6234553 3.9046675,3.7475881 3.8997855,3.743313 3.8949035,3.7390378 3.4327273,3.7111371 2.8727273,3.6813113 1.7478635,3.6214009 1.6740459,3.6055517 1.4775521,3.3817577 1.3604988,3.2484413 1.3567123,3.2345293 1.3696834,2.985432 1.3803327,2.7809208 1.4018822,2.7019768 1.4733813,2.6055466 1.6544894,2.3612879 1.630563,2.36479 3.2,2.3528196 5.1617047,2.3378572 5.0424655,2.2615844 5.2776564,3.6818182 l 0.097855,0.5909091 4.3122444,0.00472 c 2.3717342,0.0026 5.9267642,0.014871 7.9000672,0.027273 l 3.587821,0.022549 0.155889,0.1095943 c 0.294875,0.2073061 0.351915,0.4280357 0.2311,0.8942755 -0.144547,0.5578282 -2.808951,8.5382759 -2.979075,8.9229589 -0.05142,0.116266 -0.137701,0.231123 -0.221872,0.295349 l -0.137731,0.105095 -2.093795,0.02301 c -1.151587,0.01266 -3.077026,0.02493 -4.278753,0.02727 -1.201727,0.0023 -2.801273,0.0151 -3.5545461,0.02835 l -1.3695877,0.02408 1.455e-4,0.185007 c 1.818e-4,0.223491 0.09013,0.804203 0.1651174,1.065954 0.029951,0.104545 0.084469,0.206107 0.1211859,0.225757 0.041467,0.02219 1.7384567,0.05036 4.481056,0.07438 2.427872,0.02126 4.771443,0.05461 5.207934,0.07411 0.751307,0.03356 0.807869,0.04116 1.060847,0.142456 0.340018,0.13615 0.499452,0.237598 0.776475,0.494073 0.651142,0.602843 0.945907,1.294192 0.900132,2.111189 -0.05249,0.936774 -0.547049,1.728071 -1.369665,2.191454 -0.451647,0.254414 -0.873264,0.334718 -1.531682,0.291736 z M 9.553984,20.171787 c 0.2202149,-0.09758 0.503307,-0.380589 0.629179,-0.628987 0.09262,-0.182787 0.09735,-0.2161 0.08189,-0.577479 -0.01925,-0.449932 -0.08117,-0.603084 -0.3542285,-0.876144 C 9.6173796,17.795735 9.4875262,17.746821 9,17.746085 c -0.3950065,-5.96e-4 -0.4288393,0.0053 -0.6104873,0.105909 -0.2353192,0.130369 -0.4438651,0.35101 -0.5734218,0.606678 -0.091693,0.180947 -0.096581,0.215531 -0.081422,0.576007 0.010986,0.26124 0.036306,0.425757 0.079421,0.516041 0.1330658,0.278643 0.4445837,0.562014 0.7385644,0.671831 0.2059923,0.07695 0.7786378,0.04792 1.0013298,-0.05076 z m 8,0 c 0.220215,-0.09758 0.503307,-0.380589 0.629179,-0.628987 0.09262,-0.182787 0.09735,-0.2161 0.08189,-0.577479 -0.01925,-0.449932 -0.08117,-0.603084 -0.354228,-0.876144 C 17.61738,17.795735 17.487526,17.746821 17,17.746085 c -0.395007,-5.96e-4 -0.428839,0.0053 -0.610487,0.105909 -0.23532,0.130369 -0.443865,0.35101 -0.573422,0.606678 -0.09169,0.180947 -0.09658,0.215531 -0.08142,0.576007 0.01099,0.26124 0.03631,0.425757 0.07942,0.516041 0.133066,0.278643 0.444583,0.562014 0.738564,0.671831 0.205993,0.07695 0.778638,0.04792 1.00133,-0.05076 z m 0.752335,-9.253605 c 0.912789,-2.7389613 1.675499,-5.0741044 1.675499,-5.1297769 0,-0.024548 -0.01197,-0.026339 -0.03186,-0.00477 -0.01752,0.019 -0.5861,1.6995454 -1.263502,3.7345454 L 17.454814,13.218182 H 12.100827 6.74684 L 6.728534,13.136362 C 6.7003429,13.010366 5.6907935,5.8994992 5.6908549,5.8273648 5.6909062,5.7671322 6.0581,5.7633371 12.736364,5.7545449 l 7.045454,-0.00928 -7.1,-0.009 c -3.9049998,-0.00495 -7.0999998,-0.00176 -7.0999998,0.00708 0,0.046187 1.0559349,7.3600301 1.0726145,7.4293731 l 0.01968,0.08182 h 5.4267933 5.426793 z"
     id="path957" />
  <path
     style="opacity:0.75;fill:#ffffff;stroke-width:0.0363636"
     d="M 8.2363636,21.549535 C 7.4929807,21.308917 6.8350469,20.69939 6.504892,19.945455 6.4057276,19.719004 6.400856,19.681318 6.3887345,19.046914 L 6.3760825,18.384736 6.5317356,17.978642 6.6873884,17.572547 6.5436942,17.461262 C 6.2706113,17.249771 5.9948673,16.942998 5.8995095,16.744589 5.7383905,16.409353 5.7070818,16.212405 4.6368872,8.8020916 4.2355668,6.0232422 3.9035452,3.746844 3.8990615,3.7434292 3.8945776,3.7400143 3.4316143,3.7119005 2.870254,3.6809541 1.7451021,3.6189272 1.6720011,3.6032228 1.4775521,3.3817577 1.3606044,3.2485616 1.3567102,3.2343045 1.3692997,2.985432 1.3801545,2.7708503 1.3994281,2.7049019 1.4834788,2.5947449 1.6594263,2.3641479 1.6633464,2.3636364 3.2545455,2.3636364 c 1.3834561,0 1.441047,0.00275 1.5635128,0.074693 0.2573868,0.151201 0.2959297,0.2552105 0.458653,1.2376981 l 0.09691,0.5851186 7.8768257,0.025356 7.876826,0.025356 0.16295,0.099748 c 0.346268,0.2119628 0.40317,0.466171 0.234576,1.0479624 -0.291169,1.0047846 -2.809171,8.5117545 -2.955596,8.8115795 -0.06317,0.129355 -0.147459,0.232959 -0.242144,0.297644 l -0.145241,0.09922 -3.727273,0.02075 c -2.05,0.01141 -4.5822721,0.03079 -5.6272721,0.04305 l -1.9,0.0223 2.182e-4,0.168397 c 2.909e-4,0.221902 0.094962,0.845722 0.1651331,1.088025 0.039905,0.137791 0.079348,0.201343 0.1390495,0.224042 0.045838,0.01743 2.0701923,0.05015 4.4985633,0.07271 4.430737,0.04117 5.781255,0.07476 6.051585,0.150487 0.379515,0.106319 0.684291,0.297812 1.036363,0.651157 0.38799,0.389393 0.57339,0.676678 0.715851,1.109244 0.08216,0.249482 0.09609,0.355638 0.0978,0.745454 0.0023,0.532616 -0.05264,0.781243 -0.269333,1.218182 -0.332095,0.66963 -0.993574,1.206515 -1.707286,1.385708 -0.338743,0.08505 -1.194415,0.05486 -1.533392,-0.05411 -0.315277,-0.101345 -0.638297,-0.318874 -0.97701,-0.657943 -0.308935,-0.30926 -0.489191,-0.565662 -0.639763,-0.910022 -0.09802,-0.224179 -0.104017,-0.268633 -0.116273,-0.862297 -0.01213,-0.587402 -0.0071,-0.646263 0.08209,-0.956201 0.05226,-0.181647 0.08536,-0.345886 0.07356,-0.364976 -0.03013,-0.04876 -3.060033,-0.04665 -3.090194,0.0022 -0.01253,0.02027 0.01753,0.179819 0.0668,0.354545 0.04927,0.174726 0.09975,0.39132 0.11217,0.48132 0.03075,0.222757 -0.03625,0.990776 -0.107846,1.236363 -0.09549,0.327532 -0.328499,0.678662 -0.690743,1.040906 -0.28379,0.28379 -0.387288,0.360491 -0.675882,0.500883 C 9.7360291,21.58382 9.5560731,21.618727 8.9313982,21.61626 8.5601273,21.61476 8.3863589,21.59812 8.2363615,21.54957 Z M 9.561316,20.16476 c 0.2294604,-0.11108 0.499964,-0.38786 0.621157,-0.635569 0.09145,-0.186912 0.09759,-0.227896 0.08336,-0.556392 -0.01882,-0.434493 -0.09467,-0.623278 -0.3550105,-0.883622 -0.2820843,-0.282084 -0.4470236,-0.342956 -0.9290043,-0.342857 -0.3487517,7.2e-5 -0.4204466,0.01093 -0.5595891,0.08474 -0.2300669,0.122042 -0.5030869,0.410925 -0.6108764,0.646368 -0.085495,0.186746 -0.091852,0.234282 -0.076525,0.57221 0.017829,0.393084 0.055768,0.505906 0.2556469,0.760235 0.1227884,0.156238 0.3814742,0.344495 0.571444,0.415864 0.2068579,0.07771 0.7858779,0.04239 0.9993975,-0.06098 z m 8,0 c 0.22946,-0.11108 0.499964,-0.38786 0.621157,-0.635569 0.09145,-0.186912 0.09759,-0.227896 0.08336,-0.556392 -0.01882,-0.434493 -0.09467,-0.623278 -0.35501,-0.883622 -0.282085,-0.282084 -0.447024,-0.342956 -0.929005,-0.342857 -0.348751,7.2e-5 -0.420446,0.01093 -0.559589,0.08474 -0.230067,0.122042 -0.503087,0.410925 -0.610876,0.646368 -0.0855,0.186746 -0.09185,0.234282 -0.07653,0.57221 0.01783,0.393084 0.05577,0.505906 0.255647,0.760235 0.122788,0.156238 0.381474,0.344495 0.571444,0.415864 0.206857,0.07771 0.785877,0.04239 0.999397,-0.06098 z m 0.636169,-8.919305 c 0.826637,-2.4798361 1.784333,-5.4101072 1.784333,-5.4595397 0,-0.023123 -0.01186,-0.023971 -0.03186,-0.00228 -0.01752,0.019 -0.5861,1.6995454 -1.263502,3.7345454 L 17.454814,13.218182 H 12.100827 6.74684 L 6.728534,13.136362 C 6.7003433,13.010367 5.6907935,5.8994995 5.6908549,5.8273657 c 3.64e-5,-0.060229 0.3637818,-0.064027 6.9727811,-0.072821 l 6.972728,-0.00928 -7.027273,-0.009 c -3.8650001,-0.00495 -7.0272728,-0.00409 -7.0272728,0.0019 0,0.053712 1.0515403,7.3301793 1.0743865,7.4345583 l 0.017908,0.08182 h 5.4268283 5.426827 z"
     id="path996" />
  <path
     style="opacity:0.75;fill:#ffffff;stroke-width:0.00390625"
     d="m 18.176366,16.599169 c -0.106636,-0.0545 -0.343468,-0.151123 -0.428319,-0.174737 -0.19702,-0.05483 -0.998534,-0.08351 -3.019531,-0.108041 -0.652014,-0.0079 -1.698585,-0.01561 -3.183594,-0.0234 -1.7089141,-0.009 -1.9609376,-0.01081 -1.9609376,-0.01431 0,-0.0042 0.1261675,-0.0041 1.0117186,5.74e-4 0.396387,0.0021 1.134668,0.0056 1.640625,0.0078 2.555515,0.01112 3.342302,0.01589 3.875,0.02352 1.099714,0.01575 1.490407,0.04388 1.7409,0.125344 0.06682,0.02173 0.134689,0.05094 0.258124,0.111087 0.09064,0.04417 0.102539,0.05102 0.102539,0.0591 0,0.005 -0.0013,0.009 -0.0029,0.0089 -0.0016,-1.07e-4 -0.01673,-0.0072 -0.03359,-0.01587 z"
     id="path1294" />
  <path
     style="opacity:0.75;fill:#ffffff;stroke-width:0.00390625"
     d="m 18.125,16.550668 c -0.113288,-0.05583 -0.17741,-0.08463 -0.234309,-0.105256 -0.276012,-0.10005 -0.69046,-0.127418 -2.160222,-0.142646 -0.43788,-0.0045 -1.346909,-0.0098 -2.748047,-0.016 -0.542481,-0.0024 -1.250879,-0.0056 -1.574219,-0.0072 -0.415936,-0.002 0.0308,-0.003 1.527344,-0.0034 3.25077,-9.07e-4 4.121083,0.0062 4.457031,0.03661 0.08598,0.0078 0.142417,0.01747 0.23834,0.04097 0.187642,0.04596 0.363287,0.107875 0.526981,0.18576 0.05456,0.02596 0.05499,0.02627 0.05499,0.03925 0,0.0072 -0.0013,0.01292 -0.0029,0.01273 -0.0016,-1.95e-4 -0.03984,-0.01854 -0.08496,-0.04078 z"
     id="path1333" />
  <path
     style="opacity:0.75;fill:#ffffff;stroke-width:0.00390625"
     d="m 18.095703,16.534975 c -0.167634,-0.08137 -0.255262,-0.11391 -0.371788,-0.138057 -0.340651,-0.07059 -0.874266,-0.09001 -2.800087,-0.10191 -0.340527,-0.0021 -1.039258,-0.0057 -1.552734,-0.0081 -0.513477,-0.0023 -0.99336,-0.0047 -1.066406,-0.0052 -0.07305,-5.44e-4 0.782128,-5.92e-4 1.90039,-1.05e-4 1.938582,8.44e-4 2.361788,0.0029 2.759766,0.01328 0.261154,0.0068 0.41896,0.01593 0.513672,0.02964 0.09006,0.01304 0.254924,0.05513 0.381842,0.09748 0.126541,0.04223 0.330817,0.128872 0.345501,0.146543 0.006,0.0073 0.0059,0.01988 -2.23e-4,0.01894 -0.0014,-2.12e-4 -0.05085,-0.02385 -0.109933,-0.05253 z"
     id="path1372" />
  <path
     style="opacity:0.75;fill:#ffffff;stroke-width:0.00390625"
     d="m 18.142578,16.556243 c -0.202686,-0.09871 -0.300549,-0.136357 -0.414922,-0.159622 -0.377045,-0.0767 -0.904815,-0.09325 -3.372187,-0.105735 -0.457617,-0.0023 -0.888281,-0.0047 -0.957031,-0.0053 -0.06875,-5.87e-4 0.601855,-5.95e-4 1.490234,-1.8e-5 1.529147,9.92e-4 1.856414,0.003 2.164062,0.01317 0.324562,0.01075 0.419671,0.02021 0.568935,0.0566 0.166147,0.0405 0.303998,0.08651 0.461685,0.154092 0.09506,0.04074 0.12563,0.0576 0.12563,0.06928 0,0.0087 -0.0075,0.0062 -0.06641,-0.02249 z"
     id="path1411" />
  <path
     style="opacity:0.75;fill:#ffffff;stroke-width:0.00390625"
     d="m 15.538086,16.299889 c 0.0081,-8.43e-4 0.02124,-8.43e-4 0.0293,0 0.0081,8.43e-4 0.0015,0.0015 -0.01465,0.0015 -0.01611,0 -0.0227,-6.89e-4 -0.01465,-0.0015 z"
     id="path1450" />
  <path
     style="opacity:0.75;fill:#ffffff;stroke-width:0.00390625"
     d="m 18.191406,16.620085 c -0.143738,-0.07393 -0.342038,-0.148355 -0.459849,-0.172596 -0.181509,-0.03735 -0.614987,-0.06412 -1.331166,-0.0822 -0.674905,-0.01705 -1.861783,-0.03192 -4.363282,-0.05469 -0.241699,-0.0022 -0.609082,-0.0057 -0.816406,-0.0078 -0.207324,-0.0021 -0.560644,-0.0057 -0.785156,-0.008 -0.224512,-0.0023 -0.431055,-0.0046 -0.4589845,-0.0051 -0.02793,-5.32e-4 0.2041015,-6.05e-4 0.5156255,-1.62e-4 l 0.566406,8.05e-4 -0.466797,-0.0037 c -0.256738,-0.002 -0.575781,-0.0031 -0.7089845,-0.0024 -0.1332031,7.18e-4 -0.2061523,2.98e-4 -0.1621094,-9.33e-4 l 0.080078,-0.0022 -0.078125,-0.0021 c -0.091331,-0.0024 -0.1258962,-0.0025 3.1269529,0.01199 1.986841,0.0089 2.979922,0.01568 3.425782,0.02345 1.060345,0.01848 1.397892,0.04892 1.646484,0.148451 0.08187,0.03278 0.268622,0.121994 0.28418,0.135756 0.0086,0.0076 0.0087,0.01265 2.3e-4,0.01265 -0.0059,0 -0.0059,5.3e-4 5.38e-4,0.0052 0.01491,0.01091 0.0038,0.01344 -0.01542,0.0035 z m -0.08594,-0.05572 c -0.02148,-0.01042 -0.04082,-0.01891 -0.04297,-0.01888 -0.0021,3.1e-5 0.01367,0.0086 0.03516,0.01897 0.02148,0.0104 0.04082,0.0189 0.04297,0.01888 0.0021,-1.7e-5 -0.01367,-0.0086 -0.03516,-0.01897 z m -0.05664,-0.0253 c -0.0054,-0.0031 -0.01152,-0.0056 -0.01367,-0.0056 -0.0021,0 4.89e-4,0.0025 0.0059,0.0056 0.0054,0.0031 0.01152,0.0056 0.01367,0.0056 0.0021,0 -4.88e-4,-0.0025 -0.0059,-0.0056 z m -0.02734,-0.01172 c -0.0054,-0.0031 -0.01152,-0.0056 -0.01367,-0.0056 -0.0021,0 4.89e-4,0.0025 0.0059,0.0056 0.0054,0.0031 0.01152,0.0056 0.01367,0.0056 0.0021,0 -4.89e-4,-0.0025 -0.0059,-0.0056 z m -0.02734,-0.01172 c -0.0054,-0.0031 -0.01152,-0.0056 -0.01367,-0.0056 -0.0021,0 4.88e-4,0.0025 0.0059,0.0056 0.0054,0.0031 0.01152,0.0056 0.01367,0.0056 0.0021,0 -4.88e-4,-0.0025 -0.0059,-0.0056 z m -0.04297,-0.01758 c -0.0032,-0.0021 -0.0076,-0.0038 -0.0098,-0.0038 -0.0021,0 -0.0013,0.0017 0.002,0.0038 0.0032,0.0021 0.0076,0.0038 0.0098,0.0038 0.0021,0 0.0013,-0.0017 -0.002,-0.0038 z m -0.03906,-0.01563 c -0.0032,-0.0021 -0.0076,-0.0038 -0.0098,-0.0038 -0.0021,0 -0.0013,0.0017 0.002,0.0038 0.0032,0.0021 0.0076,0.0038 0.0098,0.0038 0.0021,0 0.0013,-0.0017 -0.002,-0.0038 z m -0.01953,-0.0078 c -0.0032,-0.0021 -0.0076,-0.0038 -0.0098,-0.0038 -0.0021,0 -0.0013,0.0017 0.002,0.0038 0.0032,0.0021 0.0076,0.0038 0.0098,0.0038 0.0021,0 0.0013,-0.0017 -0.002,-0.0038 z m -0.05078,-0.01953 c -0.0032,-0.0021 -0.0076,-0.0038 -0.0098,-0.0038 -0.0021,0 -0.0013,0.0017 0.002,0.0038 0.0032,0.0021 0.0076,0.0038 0.0098,0.0038 0.0021,0 0.0013,-0.0017 -0.002,-0.0038 z m -0.05469,-0.01953 c -0.0032,-0.0021 -0.0085,-0.0037 -0.01172,-0.0036 -0.0039,1.42e-4 -0.0032,0.0014 0.002,0.0036 0.01074,0.0046 0.01691,0.0046 0.0098,0 z m -0.03231,-0.01017 c -0.0013,-0.0013 -0.0047,-0.0014 -0.0075,-3.08e-4 -0.0031,0.0012 -0.0022,0.0022 0.0024,0.0024 0.0041,1.7e-4 0.0064,-7.54e-4 0.0051,-0.0021 z m -0.09766,-0.01953 c -0.0013,-0.0013 -0.0047,-0.0014 -0.0075,-3.08e-4 -0.0031,0.0012 -0.0022,0.0022 0.0024,0.0024 0.0041,1.69e-4 0.0064,-7.54e-4 0.0051,-0.0021 z m -0.03125,-0.0039 c -0.0013,-0.0013 -0.0047,-0.0014 -0.0075,-3.09e-4 -0.0031,0.0012 -0.0022,0.0022 0.0024,0.0024 0.0041,1.7e-4 0.0064,-7.53e-4 0.0051,-0.0021 z m -0.03112,-0.0042 c -0.0037,-9.78e-4 -0.01077,-0.001 -0.01563,-7.9e-5 -0.0049,9.34e-4 -0.0018,0.0017 0.0068,0.0018 0.0086,4.3e-5 0.01257,-7.22e-4 0.0088,-0.0017 z m -0.03911,-0.0039 c -0.0038,-9.83e-4 -0.0099,-9.83e-4 -0.01367,0 -0.0038,9.82e-4 -6.83e-4,0.0018 0.0068,0.0018 0.0075,0 0.0106,-8.04e-4 0.0068,-0.0018 z m -0.04096,-0.004 c -0.0048,-9.27e-4 -0.01359,-9.51e-4 -0.01953,-5.3e-5 -0.0059,8.98e-4 -0.002,0.0017 0.0087,0.0017 0.01074,2.9e-5 0.0156,-7.05e-4 0.0108,-0.0016 z m -0.04491,-0.0039 c -0.0059,-8.92e-4 -0.01642,-9.09e-4 -0.02344,-4e-5 -0.007,8.69e-4 -0.0022,0.0016 0.01067,0.0016 0.01289,2.2e-5 0.01863,-6.89e-4 0.01276,-0.0016 z m -0.05875,-0.004 c -0.0081,-8.46e-4 -0.02041,-8.32e-4 -0.02734,3.1e-5 -0.0069,8.63e-4 -3.05e-4,0.0016 0.01474,0.0015 0.01504,-1.7e-5 0.02071,-7.23e-4 0.01261,-0.0016 z m -0.0545,-0.0039 c -0.008,-8.39e-4 -0.02206,-8.51e-4 -0.03125,-2.6e-5 -0.0092,8.25e-4 -0.0026,0.0015 0.01455,0.0015 0.01719,1.4e-5 0.0247,-6.61e-4 0.0167,-0.0015 z m -0.06846,-0.0039 c -0.0091,-8.22e-4 -0.02407,-8.22e-4 -0.0332,0 -0.0091,8.22e-4 -0.0017,0.0015 0.0166,0.0015 0.01826,0 0.02573,-6.73e-4 0.0166,-0.0015 z m -0.07213,-0.0039 c -0.01013,-8.02e-4 -0.02771,-8.1e-4 -0.03906,-1.8e-5 -0.01135,7.91e-4 -0.0031,0.0014 0.01842,0.0015 0.02148,10e-6 0.03077,-6.37e-4 0.02064,-0.0014 z m -0.08397,-0.0039 c -0.0112,-7.87e-4 -0.03054,-7.94e-4 -0.04297,-1.6e-5 -0.01243,7.77e-4 -0.0033,0.0014 0.02037,0.0014 0.02363,9e-6 0.0338,-6.27e-4 0.0226,-0.0014 z m -0.08982,-0.0039 c -0.01334,-7.6e-4 -0.03619,-7.66e-4 -0.05078,-1.2e-5 -0.01459,7.54e-4 -0.0037,0.0014 0.02425,0.0014 0.02793,6e-6 0.03987,-6.1e-4 0.02653,-0.0014 z m -0.105803,-0.0039 c -0.01567,-7.43e-4 -0.04028,-7.38e-4 -0.05469,1.1e-5 -0.01441,7.5e-4 -0.0016,0.0014 0.02849,0.0014 0.03008,-7e-6 0.04187,-6.2e-4 0.0262,-0.0014 z m -0.109025,-0.0039 c -0.01548,-7.39e-4 -0.04185,-7.44e-4 -0.05859,-10e-6 -0.01675,7.34e-4 -0.0041,0.0013 0.02814,0.0013 0.03223,5e-6 0.04593,-5.95e-4 0.03045,-0.0013 z m -0.125179,-0.0039 c -0.01772,-7.23e-4 -0.04673,-7.23e-4 -0.06445,0 -0.01772,7.24e-4 -0.0032,0.0013 0.03223,0.0013 0.03545,0 0.04995,-5.92e-4 0.03223,-0.0013 z m -0.140433,-0.0039 c -0.01762,-7.22e-4 -0.0475,-7.26e-4 -0.06641,-8e-6 -0.0189,7.18e-4 -0.0045,0.0013 0.03204,0.0013 0.03652,4e-6 0.05199,-5.83e-4 0.03437,-0.0013 z m -0.152535,-0.0039 c -0.02202,-6.97e-4 -0.05806,-6.97e-4 -0.08008,0 -0.02202,6.96e-4 -0.004,0.0013 0.04004,0.0013 0.04404,0 0.06206,-5.69e-4 0.04004,-0.0013 z m -0.167969,-0.0039 c -0.02202,-6.96e-4 -0.05806,-6.96e-4 -0.08008,0 -0.02202,6.97e-4 -0.004,0.0013 0.04004,0.0013 0.04404,0 0.06206,-5.69e-4 0.04004,-0.0013 z m -0.197266,-0.0039 c -0.02524,-6.81e-4 -0.06655,-6.81e-4 -0.0918,0 -0.02524,6.8e-4 -0.0046,0.0012 0.0459,0.0012 0.05049,0 0.07114,-5.57e-4 0.0459,-0.0012 z m -0.208984,-0.0039 c -0.02632,-6.75e-4 -0.06939,-6.75e-4 -0.0957,0 -0.02632,6.76e-4 -0.0048,0.0012 0.04785,0.0012 0.05264,0 0.07417,-5.53e-4 0.04785,-0.0012 z m -0.234375,-0.0039 c -0.02847,-6.68e-4 -0.07505,-6.68e-4 -0.103516,0 -0.02847,6.67e-4 -0.0052,0.0012 0.05176,0.0012 0.05693,0 0.08023,-5.46e-4 0.05176,-0.0012 z m -0.410156,-0.0037 c -0.0048,-9.31e-4 -0.01274,-9.31e-4 -0.01758,0 -0.0048,9.31e-4 -8.79e-4,0.0017 0.0088,0.0017 0.0097,0 0.01362,-7.62e-4 0.0088,-0.0017 z m 0.167738,-1.64e-4 c -0.02859,-6.69e-4 -0.0743,-6.67e-4 -0.101563,4e-6 -0.02727,6.7e-4 -0.0039,0.0012 0.05199,0.0012 0.05586,-2e-6 0.07817,-5.51e-4 0.04957,-0.0012 z m -0.316176,-0.0039 c -0.03276,-6.54e-4 -0.08638,-6.54e-4 -0.11914,0 -0.03276,6.53e-4 -0.006,0.0012 0.05957,0.0012 0.06553,0 0.09233,-5.35e-4 0.05957,-0.0012 z m -0.296875,-0.0039 c -0.04565,-6.25e-4 -0.120361,-6.25e-4 -0.166015,0 -0.04565,6.25e-4 -0.0083,0.0011 0.08301,0.0011 0.09131,0 0.128662,-5.11e-4 0.08301,-0.0011 z m -0.357152,-0.0039 c -0.05088,-6.17e-4 -0.135251,-6.18e-4 -0.1875,-2e-6 -0.05225,6.16e-4 -0.01062,0.0011 0.0925,0.0011 0.103125,1e-6 0.145873,-5.03e-4 0.095,-0.0011 z m -0.400936,-0.0039 c -0.0587,-6.08e-4 -0.153618,-6.07e-4 -0.210938,10e-7 -0.05732,6.09e-4 -0.0093,0.0011 0.106722,0.0011 0.116015,-1e-6 0.162912,-4.99e-4 0.104216,-0.0011 z m -0.487726,-0.0039 c -0.06269,-6.03e-4 -0.166399,-6.04e-4 -0.230469,-1e-6 -0.06407,6.02e-4 -0.01278,0.0011 0.113979,0.0011 0.126757,1e-6 0.179178,-4.92e-4 0.11649,-0.0011 z m -0.566686,-0.0039 c -0.07358,-5.94e-4 -0.193994,-5.94e-4 -0.267578,0 -0.07358,5.95e-4 -0.01338,0.0011 0.133789,0.0011 0.147168,0 0.207373,-4.86e-4 0.133789,-0.0011 z m -0.609375,-0.0039 c -0.09077,-5.85e-4 -0.239306,-5.85e-4 -0.330078,0 -0.09077,5.84e-4 -0.0165,0.0011 0.165039,0.0011 0.181543,0 0.255811,-4.78e-4 0.165039,-0.0011 z m -0.722362,-0.0039 c -0.09491,-5.82e-4 -0.251352,-5.82e-4 -0.347656,0 -0.0963,5.82e-4 -0.01865,0.0011 0.172557,0.0011 0.191211,0 0.270006,-4.76e-4 0.175099,-0.0011 z"
     id="path1489" />
  <path
     style="opacity:0.75;fill:#ffffff;stroke-width:0.00390625"
     d="m 15.49707,16.327159 c 0.02847,-6.68e-4 0.07505,-6.68e-4 0.103516,0 0.02847,6.67e-4 0.0052,0.0012 -0.05176,0.0012 -0.05693,0 -0.08022,-5.46e-4 -0.05176,-0.0012 z"
     id="path1528" />
  <path
     style="opacity:0.75;fill:#ffffff;stroke-width:0.00390625"
     d="m 10.271458,19.141613 c -1.06e-4,-0.09966 -0.01282,-0.313959 -0.0238,-0.401379 -0.01734,-0.137984 -0.03841,-0.213689 -0.08749,-0.314453 C 10.101655,18.305674 10.040734,18.223702 9.9167038,18.09819 9.7942198,17.974244 9.6894753,17.891232 9.6025391,17.849209 l -0.018555,-0.009 V 17.062185 16.28413 l 0.1904297,-0.003 c 0.1047363,-0.0017 0.6483402,-9.26e-4 1.2080082,0.0016 3.787504,0.01718 4.420474,0.02071 4.992187,0.02787 1.037525,0.01298 1.466842,0.03529 1.736089,0.0902 0.06713,0.01369 0.138422,0.03422 0.1966,0.05662 0.07415,0.02854 0.267665,0.119788 0.29485,0.139025 0.01228,0.0087 0.01388,0.01483 0.0039,0.015 -0.0065,1.13e-4 -0.0065,3.08e-4 0,0.0041 0.0065,0.0038 0.0068,0.05396 0.0066,0.969608 l -2.03e-4,0.965626 -0.01352,-0.03711 c -0.02934,-0.08052 -0.08355,-0.179305 -0.138785,-0.252921 -0.07944,-0.105868 -0.230483,-0.256576 -0.33545,-0.334695 -0.141606,-0.105387 -0.289571,-0.15798 -0.490349,-0.17429 -0.07949,-0.0065 -0.317611,-0.0088 -0.431641,-0.0043 -0.166148,0.0066 -0.24196,0.02069 -0.325858,0.06064 -0.141131,0.06722 -0.245691,0.143714 -0.379413,0.277585 -0.160548,0.160727 -0.261078,0.310545 -0.327884,0.488639 -0.04447,0.118547 -0.04882,0.194827 -0.03091,0.541914 l 0.0026,0.0498 h -0.683611 -0.683611 l -0.0017,-0.19043 c -0.0019,-0.209477 0.0017,-0.411847 0.0085,-0.481445 0.01037,-0.105186 0.02838,-0.186555 0.07264,-0.328125 0.04616,-0.147631 0.107125,-0.369084 0.107125,-0.389113 0,-0.0086 -0.0069,-0.01714 -0.01386,-0.01714 -0.0025,0 -0.01726,0.02681 -0.03286,0.05957 -0.183358,0.384878 -0.274493,0.813095 -0.264367,1.242187 l 0.0025,0.104493 H 13.00103 11.750069 l -2.34e-4,-0.15918 c -1.74e-4,-0.118102 -0.002,-0.178333 -0.007,-0.233399 -0.03198,-0.351089 -0.114496,-0.655472 -0.261355,-0.964023 -0.02393,-0.05028 -0.02979,-0.0564 -0.03938,-0.04116 -0.0055,0.0087 0.03404,0.176123 0.07778,0.329401 0.06226,0.218186 0.09929,0.374775 0.11502,0.486328 0.01251,0.08875 0.01196,0.309377 -0.0013,0.509766 l -0.0046,0.07031 -0.678711,9.88e-4 -0.678711,9.88e-4 -2.7e-5,-0.02443 z M 14.47157,17.747776 C 14.364251,17.733833 13.94615,17.728302 13,17.728308 c -0.948786,8e-6 -1.364064,0.0055 -1.47157,0.01947 -0.01349,0.0018 0.648718,0.0032 1.47157,0.0032 0.822852,0 1.485058,-0.0014 1.47157,-0.0032 z m 3.664953,-1.167456 c -0.0049,-0.0048 -0.07207,-0.03562 -0.07207,-0.03303 0,0.0017 0.06897,0.03565 0.07402,0.03643 9.66e-4,1.49e-4 8.9e-5,-0.0014 -0.002,-0.0034 z m -0.0877,-0.04126 c -0.0054,-0.0031 -0.01152,-0.0056 -0.01367,-0.0056 -0.0021,0 4.89e-4,0.0025 0.0059,0.0056 0.0054,0.0031 0.01152,0.0056 0.01367,0.0056 0.0021,0 -4.88e-4,-0.0025 -0.0059,-0.0056 z m -0.02734,-0.01172 c -0.0054,-0.0031 -0.01152,-0.0056 -0.01367,-0.0056 -0.0021,0 4.89e-4,0.0025 0.0059,0.0056 0.0054,0.0031 0.01152,0.0056 0.01367,0.0056 0.0021,0 -4.89e-4,-0.0025 -0.0059,-0.0056 z m -0.01986,-0.0073 c -8.96e-4,-7.83e-4 -0.006,-0.0035 -0.01139,-0.0061 -0.0092,-0.0044 -0.0093,-0.0043 -0.0022,0.0014 0.0062,0.005 0.01894,0.0093 0.01358,0.0047 z m -0.05046,-0.02201 c -0.0032,-0.0021 -0.0076,-0.0038 -0.0098,-0.0038 -0.0021,0 -0.0013,0.0017 0.002,0.0038 0.0032,0.0021 0.0076,0.0038 0.0098,0.0038 0.0021,0 0.0013,-0.0017 -0.002,-0.0038 z m -0.03906,-0.01563 c -0.0032,-0.0021 -0.0076,-0.0038 -0.0098,-0.0038 -0.0021,0 -0.0013,0.0017 0.002,0.0038 0.0032,0.0021 0.0076,0.0038 0.0098,0.0038 0.0021,0 0.0013,-0.0017 -0.002,-0.0038 z m -0.01953,-0.0078 c -0.0032,-0.0021 -0.0076,-0.0038 -0.0098,-0.0038 -0.0021,0 -0.0013,0.0017 0.002,0.0038 0.0032,0.0021 0.0076,0.0038 0.0098,0.0038 0.0021,0 0.0013,-0.0017 -0.002,-0.0038 z m -0.05078,-0.01953 c -0.0032,-0.0021 -0.0076,-0.0038 -0.0098,-0.0038 -0.0021,0 -0.0013,0.0017 0.002,0.0038 0.0032,0.0021 0.0076,0.0038 0.0098,0.0038 0.0021,0 0.0013,-0.0017 -0.002,-0.0038 z m -0.05469,-0.01953 c -0.0032,-0.0021 -0.0076,-0.0038 -0.0098,-0.0038 -0.0021,0 -0.0013,0.0017 0.002,0.0038 0.0032,0.0021 0.0076,0.0038 0.0098,0.0038 0.0021,0 0.0013,-0.0017 -0.002,-0.0038 z M 17.592767,16.3978 c -0.0027,-0.0011 -0.0071,-0.0011 -0.0098,0 -0.0027,0.0011 -4.88e-4,0.002 0.0049,0.002 0.0054,0 0.0076,-8.87e-4 0.0049,-0.002 z m -0.03906,-0.0039 c -0.0027,-0.0011 -0.0071,-0.0011 -0.0098,0 -0.0027,0.0011 -4.88e-4,0.002 0.0049,0.002 0.0054,0 0.0076,-8.87e-4 0.0049,-0.002 z m -0.0429,-0.0039 c -0.0026,-0.0011 -0.0079,-0.0011 -0.01172,-1.45e-4 -0.0038,9.91e-4 -0.0016,0.0019 0.0048,0.0019 0.0064,7.9e-5 0.0096,-7.31e-4 0.0069,-0.0018 z m -0.04687,-0.0039 c -0.0026,-0.0011 -0.0079,-0.0011 -0.01172,-1.45e-4 -0.0038,9.9e-4 -0.0016,0.0019 0.0048,0.0019 0.0064,8e-5 0.0096,-7.3e-4 0.0069,-0.0018 z m -0.05667,-0.004 c -0.0037,-9.78e-4 -0.01077,-0.001 -0.01563,-7.9e-5 -0.0049,9.34e-4 -0.0018,0.0017 0.0068,0.0018 0.0086,4.3e-5 0.01257,-7.22e-4 0.0088,-0.0017 z m -0.05669,-0.004 c -0.0048,-9.31e-4 -0.01274,-9.31e-4 -0.01758,0 -0.0048,9.31e-4 -8.79e-4,0.0017 0.0088,0.0017 0.0097,0 0.01362,-7.61e-4 0.0088,-0.0017 z m -0.07031,-0.0039 c -0.0048,-9.31e-4 -0.01274,-9.31e-4 -0.01758,0 -0.0048,9.31e-4 -8.79e-4,0.0017 0.0088,0.0017 0.0097,0 0.01362,-7.62e-4 0.0088,-0.0017 z m -0.07227,-0.0039 c -0.0059,-8.95e-4 -0.01558,-8.95e-4 -0.02148,0 -0.0059,8.95e-4 -0.0011,0.0016 0.01074,0.0016 0.01182,0 0.01665,-7.32e-4 0.01074,-0.0016 z m -0.08587,-0.0039 c -0.0059,-8.92e-4 -0.01642,-9.1e-4 -0.02344,-4e-5 -0.007,8.69e-4 -0.0022,0.0016 0.01067,0.0016 0.01289,2.2e-5 0.01863,-6.89e-4 0.01277,-0.0016 z m -0.09391,-0.004 c -0.0081,-8.46e-4 -0.02041,-8.32e-4 -0.02734,3.1e-5 -0.0069,8.63e-4 -3.04e-4,0.0016 0.01474,0.0015 0.01504,-1.7e-5 0.02071,-7.24e-4 0.01261,-0.0016 z m -0.105381,-0.0039 c -0.0081,-8.43e-4 -0.02124,-8.43e-4 -0.0293,0 -0.0081,8.42e-4 -0.0015,0.0015 0.01465,0.0015 0.01611,0 0.0227,-6.9e-4 0.01465,-0.0015 z m -0.109272,-0.0039 c -0.008,-8.39e-4 -0.02206,-8.51e-4 -0.03125,-2.5e-5 -0.0092,8.25e-4 -0.0026,0.0015 0.01454,0.0015 0.01719,1.4e-5 0.02471,-6.61e-4 0.01671,-0.0015 z m -0.127057,-0.0039 c -0.0091,-8.22e-4 -0.02407,-8.22e-4 -0.0332,0 -0.0091,8.23e-4 -0.0017,0.0015 0.0166,0.0015 0.01826,0 0.02573,-6.73e-4 0.0166,-0.0015 z M 16.546,16.3468 c -0.0091,-8.19e-4 -0.02489,-8.29e-4 -0.03516,-2.2e-5 -0.01027,8.08e-4 -0.0029,0.0015 0.01648,0.0015 0.01934,1.2e-5 0.02774,-6.49e-4 0.01867,-0.0015 z m -0.156368,-0.0039 c -0.01128,-7.89e-4 -0.02974,-7.89e-4 -0.04102,0 -0.01128,7.89e-4 -0.0021,0.0014 0.02051,0.0014 0.02256,0 0.03179,-6.46e-4 0.02051,-0.0014 z M 16.223617,16.339 c -0.0102,-8.05e-4 -0.0269,-8.05e-4 -0.03711,0 -0.01021,8.04e-4 -0.0019,0.0015 0.01855,0.0015 0.02041,0 0.02876,-6.59e-4 0.01855,-0.0015 z m -0.203125,-0.0039 c -0.01235,-7.75e-4 -0.03257,-7.75e-4 -0.04492,0 -0.01235,7.75e-4 -0.0022,0.0014 0.02246,0.0014 0.02471,0 0.03481,-6.34e-4 0.02246,-0.0014 z m -0.208985,-0.0039 c -0.01343,-7.63e-4 -0.0354,-7.63e-4 -0.04883,0 -0.01343,7.63e-4 -0.0024,0.0014 0.02441,0.0014 0.02686,0 0.03784,-6.24e-4 0.02441,-0.0014 z m -0.623128,-0.0073 c -0.0013,-0.0013 -0.0047,-0.0014 -0.0075,-3.09e-4 -0.0031,0.0012 -0.0022,0.0022 0.0024,0.0024 0.0041,1.7e-4 0.0064,-7.53e-4 0.0051,-0.0021 z m 0.144744,-5.06e-4 c -0.01013,-8.02e-4 -0.02771,-8.1e-4 -0.03906,-1.8e-5 -0.01135,7.91e-4 -0.0031,0.0014 0.01842,0.0015 0.02148,10e-6 0.03077,-6.37e-4 0.02064,-0.0014 z m -0.390837,-0.0034 c -0.0013,-0.0013 -0.0047,-0.0014 -0.0075,-3.09e-4 -0.0031,0.0012 -0.0022,0.0022 0.0024,0.0024 0.0041,1.7e-4 0.0064,-7.53e-4 0.0051,-0.0021 z m 0.06271,-5.06e-4 c -0.01013,-8.02e-4 -0.02771,-8.1e-4 -0.03906,-1.9e-5 -0.01135,7.92e-4 -0.0031,0.0014 0.01842,0.0015 0.02148,10e-6 0.03077,-6.37e-4 0.02064,-0.0014 z m -0.306772,-0.004 c -0.01987,-7.09e-4 -0.05239,-7.09e-4 -0.07226,0 -0.01987,7.09e-4 -0.0036,0.0013 0.03613,0.0013 0.03975,0 0.05601,-5.8e-4 0.03613,-0.0013 z m -0.363069,-0.0039 c -0.0219,-6.95e-4 -0.05882,-6.98e-4 -0.08203,-6e-6 -0.02321,6.92e-4 -0.0053,0.0013 0.03983,0.0013 0.04512,3e-6 0.06411,-5.63e-4 0.0422,-0.0013 z m -0.410368,-0.0039 c -0.02417,-6.86e-4 -0.06372,-6.86e-4 -0.08789,0 -0.02417,6.85e-4 -0.0044,0.0012 0.04394,0.0012 0.04834,0 0.06812,-5.61e-4 0.04395,-0.0012 z m -0.492188,-0.0039 c -0.02632,-6.76e-4 -0.06939,-6.76e-4 -0.0957,0 -0.02632,6.75e-4 -0.0048,0.0012 0.04785,0.0012 0.05264,0 0.07417,-5.53e-4 0.04785,-0.0012 z m -0.580078,-0.0039 c -0.02954,-6.63e-4 -0.07788,-6.63e-4 -0.107422,0 -0.02954,6.64e-4 -0.0054,0.0012 0.05371,0.0012 0.05908,0 0.08325,-5.43e-4 0.05371,-0.0012 z m -0.628906,-0.0039 c -0.03599,-6.45e-4 -0.09487,-6.45e-4 -0.13086,0 -0.03599,6.45e-4 -0.0065,0.0012 0.06543,0.0012 0.07197,0 0.101416,-5.27e-4 0.06543,-0.0012 z m -0.972738,-0.0033 c -0.0013,-0.0013 -0.0047,-0.0014 -0.0075,-3.09e-4 -0.0031,0.0012 -0.0022,0.0022 0.0024,0.0024 0.0041,1.7e-4 0.0064,-7.53e-4 0.0051,-0.0021 z m 0.238617,-5.63e-4 c -0.038,-6.39e-4 -0.101277,-6.4e-4 -0.140625,-2e-6 -0.03935,6.38e-4 -0.0083,0.0012 0.06908,0.0012 0.07734,10e-7 0.109538,-5.21e-4 0.07154,-0.0012 z m -0.874278,-0.0051 c -0.172949,-0.0014 -0.429589,-0.0024 -0.570312,-0.0022 l -0.2558595,3.76e-4 0.2324215,0.002 c 0.127832,0.0011 0.384473,0.0021 0.570313,0.0022 l 0.337891,1.59e-4 z"
     id="path1567" />
  <path
     style="opacity:0.75;fill:#ffffff;stroke-width:0.00390625"
     d="m 10.271458,19.141613 c -1.06e-4,-0.09966 -0.01282,-0.313959 -0.0238,-0.401379 -0.01734,-0.137984 -0.03841,-0.213689 -0.08749,-0.314453 C 10.101655,18.305674 10.040734,18.223702 9.9167038,18.09819 9.7942198,17.974244 9.6894753,17.891232 9.6025391,17.849209 l -0.018555,-0.009 V 17.062185 16.28413 l 0.1904297,-0.003 c 0.1047363,-0.0017 0.6483402,-9.26e-4 1.2080082,0.0016 3.787504,0.01718 4.420474,0.02071 4.992187,0.02787 1.037525,0.01298 1.466842,0.03529 1.736089,0.0902 0.06713,0.01369 0.138422,0.03422 0.1966,0.05662 0.07415,0.02854 0.267665,0.119788 0.29485,0.139025 0.01228,0.0087 0.01388,0.01483 0.0039,0.015 -0.0065,1.13e-4 -0.0065,3.08e-4 0,0.0041 0.0065,0.0038 0.0068,0.05396 0.0066,0.969608 l -2.03e-4,0.965626 -0.01352,-0.03711 c -0.02934,-0.08052 -0.08355,-0.179305 -0.138785,-0.252921 -0.07944,-0.105868 -0.230483,-0.256576 -0.33545,-0.334695 -0.141606,-0.105387 -0.289571,-0.15798 -0.490349,-0.17429 -0.07949,-0.0065 -0.317611,-0.0088 -0.431641,-0.0043 -0.166148,0.0066 -0.24196,0.02069 -0.325858,0.06064 -0.141131,0.06722 -0.245691,0.143714 -0.379413,0.277585 -0.160548,0.160727 -0.261078,0.310545 -0.327884,0.488639 -0.04447,0.118547 -0.04882,0.194827 -0.03091,0.541914 l 0.0026,0.0498 h -0.683611 -0.683611 l -0.0017,-0.19043 c -0.0019,-0.209477 0.0017,-0.411847 0.0085,-0.481445 0.01037,-0.105186 0.02838,-0.186555 0.07264,-0.328125 0.04616,-0.147631 0.107125,-0.369084 0.107125,-0.389113 0,-0.0086 -0.0069,-0.01714 -0.01386,-0.01714 -0.0025,0 -0.01726,0.02681 -0.03286,0.05957 -0.183358,0.384878 -0.274493,0.813095 -0.264367,1.242187 l 0.0025,0.104493 H 13.00103 11.750069 l -2.34e-4,-0.15918 c -1.74e-4,-0.118102 -0.002,-0.178333 -0.007,-0.233399 -0.03198,-0.351089 -0.114496,-0.655472 -0.261355,-0.964023 -0.02393,-0.05028 -0.02979,-0.0564 -0.03938,-0.04116 -0.0055,0.0087 0.03404,0.176123 0.07778,0.329401 0.06226,0.218186 0.09929,0.374775 0.11502,0.486328 0.01251,0.08875 0.01196,0.309377 -0.0013,0.509766 l -0.0046,0.07031 -0.678711,9.88e-4 -0.678711,9.88e-4 -2.7e-5,-0.02443 z M 14.47157,17.747776 C 14.364251,17.733833 13.94615,17.728302 13,17.728308 c -0.948786,8e-6 -1.364064,0.0055 -1.47157,0.01947 -0.01349,0.0018 0.648718,0.0032 1.47157,0.0032 0.822852,0 1.485058,-0.0014 1.47157,-0.0032 z m 3.664953,-1.167456 c -0.0049,-0.0048 -0.07207,-0.03562 -0.07207,-0.03303 0,0.0017 0.06897,0.03565 0.07402,0.03643 9.66e-4,1.49e-4 8.9e-5,-0.0014 -0.002,-0.0034 z m -0.0877,-0.04126 c -0.0054,-0.0031 -0.01152,-0.0056 -0.01367,-0.0056 -0.0021,0 4.89e-4,0.0025 0.0059,0.0056 0.0054,0.0031 0.01152,0.0056 0.01367,0.0056 0.0021,0 -4.88e-4,-0.0025 -0.0059,-0.0056 z m -0.02734,-0.01172 c -0.0054,-0.0031 -0.01152,-0.0056 -0.01367,-0.0056 -0.0021,0 4.89e-4,0.0025 0.0059,0.0056 0.0054,0.0031 0.01152,0.0056 0.01367,0.0056 0.0021,0 -4.89e-4,-0.0025 -0.0059,-0.0056 z m -0.01986,-0.0073 c -8.96e-4,-7.83e-4 -0.006,-0.0035 -0.01139,-0.0061 -0.0092,-0.0044 -0.0093,-0.0043 -0.0022,0.0014 0.0062,0.005 0.01894,0.0093 0.01358,0.0047 z m -0.05046,-0.02201 c -0.0032,-0.0021 -0.0076,-0.0038 -0.0098,-0.0038 -0.0021,0 -0.0013,0.0017 0.002,0.0038 0.0032,0.0021 0.0076,0.0038 0.0098,0.0038 0.0021,0 0.0013,-0.0017 -0.002,-0.0038 z m -0.03906,-0.01563 c -0.0032,-0.0021 -0.0076,-0.0038 -0.0098,-0.0038 -0.0021,0 -0.0013,0.0017 0.002,0.0038 0.0032,0.0021 0.0076,0.0038 0.0098,0.0038 0.0021,0 0.0013,-0.0017 -0.002,-0.0038 z m -0.01953,-0.0078 c -0.0032,-0.0021 -0.0076,-0.0038 -0.0098,-0.0038 -0.0021,0 -0.0013,0.0017 0.002,0.0038 0.0032,0.0021 0.0076,0.0038 0.0098,0.0038 0.0021,0 0.0013,-0.0017 -0.002,-0.0038 z m -0.05078,-0.01953 c -0.0032,-0.0021 -0.0076,-0.0038 -0.0098,-0.0038 -0.0021,0 -0.0013,0.0017 0.002,0.0038 0.0032,0.0021 0.0076,0.0038 0.0098,0.0038 0.0021,0 0.0013,-0.0017 -0.002,-0.0038 z m -0.05469,-0.01953 c -0.0032,-0.0021 -0.0076,-0.0038 -0.0098,-0.0038 -0.0021,0 -0.0013,0.0017 0.002,0.0038 0.0032,0.0021 0.0076,0.0038 0.0098,0.0038 0.0021,0 0.0013,-0.0017 -0.002,-0.0038 z M 17.592767,16.3978 c -0.0027,-0.0011 -0.0071,-0.0011 -0.0098,0 -0.0027,0.0011 -4.88e-4,0.002 0.0049,0.002 0.0054,0 0.0076,-8.87e-4 0.0049,-0.002 z m -0.03906,-0.0039 c -0.0027,-0.0011 -0.0071,-0.0011 -0.0098,0 -0.0027,0.0011 -4.88e-4,0.002 0.0049,0.002 0.0054,0 0.0076,-8.87e-4 0.0049,-0.002 z m -0.0429,-0.0039 c -0.0026,-0.0011 -0.0079,-0.0011 -0.01172,-1.45e-4 -0.0038,9.91e-4 -0.0016,0.0019 0.0048,0.0019 0.0064,7.9e-5 0.0096,-7.31e-4 0.0069,-0.0018 z m -0.04687,-0.0039 c -0.0026,-0.0011 -0.0079,-0.0011 -0.01172,-1.45e-4 -0.0038,9.9e-4 -0.0016,0.0019 0.0048,0.0019 0.0064,8e-5 0.0096,-7.3e-4 0.0069,-0.0018 z m -0.05667,-0.004 c -0.0037,-9.78e-4 -0.01077,-0.001 -0.01563,-7.9e-5 -0.0049,9.34e-4 -0.0018,0.0017 0.0068,0.0018 0.0086,4.3e-5 0.01257,-7.22e-4 0.0088,-0.0017 z m -0.05669,-0.004 c -0.0048,-9.31e-4 -0.01274,-9.31e-4 -0.01758,0 -0.0048,9.31e-4 -8.79e-4,0.0017 0.0088,0.0017 0.0097,0 0.01362,-7.61e-4 0.0088,-0.0017 z m -0.07031,-0.0039 c -0.0048,-9.31e-4 -0.01274,-9.31e-4 -0.01758,0 -0.0048,9.31e-4 -8.79e-4,0.0017 0.0088,0.0017 0.0097,0 0.01362,-7.62e-4 0.0088,-0.0017 z m -0.07227,-0.0039 c -0.0059,-8.95e-4 -0.01558,-8.95e-4 -0.02148,0 -0.0059,8.95e-4 -0.0011,0.0016 0.01074,0.0016 0.01182,0 0.01665,-7.32e-4 0.01074,-0.0016 z m -0.08587,-0.0039 c -0.0059,-8.92e-4 -0.01642,-9.1e-4 -0.02344,-4e-5 -0.007,8.69e-4 -0.0022,0.0016 0.01067,0.0016 0.01289,2.2e-5 0.01863,-6.89e-4 0.01277,-0.0016 z m -0.09391,-0.004 c -0.0081,-8.46e-4 -0.02041,-8.32e-4 -0.02734,3.1e-5 -0.0069,8.63e-4 -3.04e-4,0.0016 0.01474,0.0015 0.01504,-1.7e-5 0.02071,-7.24e-4 0.01261,-0.0016 z m -0.105381,-0.0039 c -0.0081,-8.43e-4 -0.02124,-8.43e-4 -0.0293,0 -0.0081,8.42e-4 -0.0015,0.0015 0.01465,0.0015 0.01611,0 0.0227,-6.9e-4 0.01465,-0.0015 z m -0.109272,-0.0039 c -0.008,-8.39e-4 -0.02206,-8.51e-4 -0.03125,-2.5e-5 -0.0092,8.25e-4 -0.0026,0.0015 0.01454,0.0015 0.01719,1.4e-5 0.02471,-6.61e-4 0.01671,-0.0015 z m -0.127057,-0.0039 c -0.0091,-8.22e-4 -0.02407,-8.22e-4 -0.0332,0 -0.0091,8.23e-4 -0.0017,0.0015 0.0166,0.0015 0.01826,0 0.02573,-6.73e-4 0.0166,-0.0015 z M 16.546,16.3468 c -0.0091,-8.19e-4 -0.02489,-8.29e-4 -0.03516,-2.2e-5 -0.01027,8.08e-4 -0.0029,0.0015 0.01648,0.0015 0.01934,1.2e-5 0.02774,-6.49e-4 0.01867,-0.0015 z m -0.156368,-0.0039 c -0.01128,-7.89e-4 -0.02974,-7.89e-4 -0.04102,0 -0.01128,7.89e-4 -0.0021,0.0014 0.02051,0.0014 0.02256,0 0.03179,-6.46e-4 0.02051,-0.0014 z M 16.223617,16.339 c -0.0102,-8.05e-4 -0.0269,-8.05e-4 -0.03711,0 -0.01021,8.04e-4 -0.0019,0.0015 0.01855,0.0015 0.02041,0 0.02876,-6.59e-4 0.01855,-0.0015 z m -0.203125,-0.0039 c -0.01235,-7.75e-4 -0.03257,-7.75e-4 -0.04492,0 -0.01235,7.75e-4 -0.0022,0.0014 0.02246,0.0014 0.02471,0 0.03481,-6.34e-4 0.02246,-0.0014 z m -0.208985,-0.0039 c -0.01343,-7.63e-4 -0.0354,-7.63e-4 -0.04883,0 -0.01343,7.63e-4 -0.0024,0.0014 0.02441,0.0014 0.02686,0 0.03784,-6.24e-4 0.02441,-0.0014 z m -0.623128,-0.0073 c -0.0013,-0.0013 -0.0047,-0.0014 -0.0075,-3.09e-4 -0.0031,0.0012 -0.0022,0.0022 0.0024,0.0024 0.0041,1.7e-4 0.0064,-7.53e-4 0.0051,-0.0021 z m 0.144744,-5.06e-4 c -0.01013,-8.02e-4 -0.02771,-8.1e-4 -0.03906,-1.8e-5 -0.01135,7.91e-4 -0.0031,0.0014 0.01842,0.0015 0.02148,10e-6 0.03077,-6.37e-4 0.02064,-0.0014 z m -0.390837,-0.0034 c -0.0013,-0.0013 -0.0047,-0.0014 -0.0075,-3.09e-4 -0.0031,0.0012 -0.0022,0.0022 0.0024,0.0024 0.0041,1.7e-4 0.0064,-7.53e-4 0.0051,-0.0021 z m 0.06271,-5.06e-4 c -0.01013,-8.02e-4 -0.02771,-8.1e-4 -0.03906,-1.9e-5 -0.01135,7.92e-4 -0.0031,0.0014 0.01842,0.0015 0.02148,10e-6 0.03077,-6.37e-4 0.02064,-0.0014 z m -0.306772,-0.004 c -0.01987,-7.09e-4 -0.05239,-7.09e-4 -0.07226,0 -0.01987,7.09e-4 -0.0036,0.0013 0.03613,0.0013 0.03975,0 0.05601,-5.8e-4 0.03613,-0.0013 z m -0.363069,-0.0039 c -0.0219,-6.95e-4 -0.05882,-6.98e-4 -0.08203,-6e-6 -0.02321,6.92e-4 -0.0053,0.0013 0.03983,0.0013 0.04512,3e-6 0.06411,-5.63e-4 0.0422,-0.0013 z m -0.410368,-0.0039 c -0.02417,-6.86e-4 -0.06372,-6.86e-4 -0.08789,0 -0.02417,6.85e-4 -0.0044,0.0012 0.04394,0.0012 0.04834,0 0.06812,-5.61e-4 0.04395,-0.0012 z m -0.492188,-0.0039 c -0.02632,-6.76e-4 -0.06939,-6.76e-4 -0.0957,0 -0.02632,6.75e-4 -0.0048,0.0012 0.04785,0.0012 0.05264,0 0.07417,-5.53e-4 0.04785,-0.0012 z m -0.580078,-0.0039 c -0.02954,-6.63e-4 -0.07788,-6.63e-4 -0.107422,0 -0.02954,6.64e-4 -0.0054,0.0012 0.05371,0.0012 0.05908,0 0.08325,-5.43e-4 0.05371,-0.0012 z m -0.628906,-0.0039 c -0.03599,-6.45e-4 -0.09487,-6.45e-4 -0.13086,0 -0.03599,6.45e-4 -0.0065,0.0012 0.06543,0.0012 0.07197,0 0.101416,-5.27e-4 0.06543,-0.0012 z m -0.972738,-0.0033 c -0.0013,-0.0013 -0.0047,-0.0014 -0.0075,-3.09e-4 -0.0031,0.0012 -0.0022,0.0022 0.0024,0.0024 0.0041,1.7e-4 0.0064,-7.53e-4 0.0051,-0.0021 z m 0.238617,-5.63e-4 c -0.038,-6.39e-4 -0.101277,-6.4e-4 -0.140625,-2e-6 -0.03935,6.38e-4 -0.0083,0.0012 0.06908,0.0012 0.07734,10e-7 0.109538,-5.21e-4 0.07154,-0.0012 z m -0.874278,-0.0051 c -0.172949,-0.0014 -0.429589,-0.0024 -0.570312,-0.0022 l -0.2558595,3.76e-4 0.2324215,0.002 c 0.127832,0.0011 0.384473,0.0021 0.570313,0.0022 l 0.337891,1.59e-4 z"
     id="path1606" />
  <path
     style="opacity:0.75;fill:#ffffff;stroke-width:0.00390625"
     d="m 10.271444,19.139648 c -5.6e-5,-0.03728 -0.007,-0.190864 -0.01188,-0.262695 -0.0156,-0.229795 -0.04548,-0.353075 -0.117858,-0.486328 C 10.086991,18.289891 10.03118,18.216516 9.9297442,18.111957 9.8155344,17.99423 9.696653,17.898007 9.610366,17.853451 l -0.026353,-0.01361 -1.45e-5,-0.77769 -1.44e-5,-0.777689 0.1236839,-0.0026 c 0.172104,-0.0036 0.67724,-0.0032 1.536473,0.0013 0.402832,0.0021 1.137597,0.0056 1.632812,0.0078 1.340824,0.006 2.295371,0.01143 2.761719,0.01575 1.496795,0.01387 1.940079,0.04045 2.218856,0.133041 0.06665,0.02214 0.132493,0.0506 0.251847,0.108866 0.09015,0.04401 0.109483,0.05601 0.100169,0.06215 -0.0037,0.0024 -0.004,0.0043 -0.001,0.0062 0.0031,0.0019 0.0042,0.270646 0.0041,0.968261 l -1.6e-4,0.965609 -0.01621,-0.04297 c -0.05688,-0.150794 -0.154236,-0.288262 -0.313557,-0.44276 -0.205229,-0.199017 -0.359647,-0.278961 -0.593261,-0.307138 -0.148152,-0.01787 -0.502397,-0.01777 -0.629329,1.77e-4 -0.08873,0.01254 -0.133307,0.0261 -0.206658,0.06283 -0.137634,0.06892 -0.266102,0.167168 -0.387143,0.296078 -0.137953,0.146919 -0.222444,0.274425 -0.286271,0.432011 -0.05462,0.134852 -0.05913,0.196822 -0.04118,0.565251 l 0.0025,0.05176 h -0.684548 -0.684548 l 0.0018,-0.323242 c 0.0024,-0.426698 0.0014,-0.418712 0.0889,-0.71027 0.03977,-0.132591 0.08294,-0.288317 0.09381,-0.338423 0.005,-0.02312 0.0018,-0.03431 -0.0099,-0.03431 -0.005,0 -0.03999,0.07075 -0.07347,0.148437 -0.09919,0.230175 -0.166344,0.47197 -0.199918,0.719857 -0.01884,0.139133 -0.02313,0.208545 -0.02338,0.378776 l -2.34e-4,0.15918 h -1.25002 -1.250021 l -8e-5,-0.153321 c -8.5e-5,-0.161871 -0.0034,-0.221464 -0.01981,-0.354492 -0.03331,-0.270323 -0.105113,-0.528152 -0.217644,-0.781497 -0.03128,-0.07043 -0.05189,-0.111614 -0.05763,-0.115159 -0.0024,-0.0015 -0.0068,-3.01e-4 -0.0097,0.0026 -0.0092,0.0093 0.01527,0.115437 0.08423,0.36472 0.05584,0.201863 0.08148,0.308829 0.09991,0.416768 0.01241,0.07268 0.01661,0.1912 0.01275,0.359815 -0.0024,0.103953 -0.0097,0.244923 -0.0132,0.255644 -0.0013,0.0039 -0.140648,0.0049 -0.679469,0.0049 h -0.677856 l -4e-5,-0.02637 z m 4.191447,-1.391718 c -0.05555,-0.0131 -0.522718,-0.01932 -1.449219,-0.0193 -0.949895,2e-5 -1.44212,0.0065 -1.474232,0.01952 -0.0045,0.0018 0.654505,0.0032 1.464466,0.0032 0.809961,-8.4e-5 1.466504,-0.0016 1.458985,-0.0034 z m 3.662339,-1.173835 c -0.0042,-0.0032 -0.0094,-0.0057 -0.01172,-0.0056 -0.0023,7.6e-5 2.58e-4,0.0026 0.0056,0.0057 0.01265,0.0072 0.01573,0.0072 0.0061,-1.24e-4 z m -0.0725,-0.03099 c 0,-9.98e-4 -0.004,-0.0037 -0.0088,-0.0061 -0.0084,-0.0041 -0.0085,-0.004 -0.0012,0.0018 0.008,0.0064 0.01,0.0072 0.01,0.0043 z m -0.03125,-0.01534 c 0,-8.45e-4 -0.0027,-0.0026 -0.0061,-0.0039 -0.0035,-0.0013 -0.005,-6.79e-4 -0.0037,0.0015 0.0023,0.0037 0.0097,0.0055 0.0097,0.0023 z m -7.401128,-0.239666 c -0.03048,-6.59e-4 -0.08146,-6.6e-4 -0.113281,-3e-6 -0.03182,6.57e-4 -0.0069,0.0012 0.05542,0.0012 0.06231,2e-6 0.08834,-5.36e-4 0.05786,-0.0012 z m -0.445308,-0.0039 c -0.03263,-6.53e-4 -0.08712,-6.54e-4 -0.121093,-3e-6 -0.03397,6.51e-4 -0.0073,0.0012 0.05933,0.0012 0.0666,2e-6 0.0944,-5.3e-4 0.06177,-0.0012 z"
     id="path1608" />
  <path
     style="opacity:0.75;fill:#ffffff;stroke-width:0.00390625"
     d="m 15.510742,16.303769 c 0.0102,-8.04e-4 0.0269,-8.04e-4 0.03711,0 0.0102,8.05e-4 0.0019,0.0015 -0.01856,0.0015 -0.02041,0 -0.02876,-6.58e-4 -0.01855,-0.0015 z"
     id="path1647" />
  <path
     style="opacity:0.75;fill:#ffffff;stroke-width:0.00390625"
     d=""
     id="path1686" />
  <path
     style="opacity:0.75;fill:#ffffff;stroke-width:0.00390625"
     d=""
     id="path1725" />
  <path
     style="opacity:0.75;fill:#ffffff;stroke-width:0.00390625"
     d=""
     id="path1764" />
  <path
     style="opacity:0.75;fill:#ffffff;stroke-width:0.00390625"
     d=""
     id="path1803" />
  <path
     style="opacity:0.75;fill:#ffffff;stroke-width:0.00390625"
     d="m 10.269858,19.094727 c -0.0144,-0.391281 -0.03623,-0.51933 -0.115376,-0.676776 -0.01836,-0.03653 -0.0469,-0.08663 -0.06341,-0.111328 C 9.9819605,18.143443 9.7603604,17.934549 9.6123047,17.85531 l -0.02832,-0.01516 v -0.778016 -0.778016 l 0.1630859,-0.003 c 0.2073399,-0.0038 2.3163994,0.004 4.7783204,0.01765 2.300102,0.01276 2.838878,0.03 3.186426,0.101966 0.130699,0.02707 0.211966,0.05719 0.393652,0.145915 0.09388,0.04585 0.113455,0.0579 0.104075,0.06409 -0.0037,0.0024 -0.004,0.0043 -0.001,0.0062 0.0031,0.0019 0.0043,0.270665 0.0042,0.968261 l -1.41e-4,0.965609 -0.01925,-0.04872 c -0.02802,-0.07094 -0.05557,-0.123536 -0.09824,-0.187586 -0.05846,-0.08775 -0.121065,-0.16131 -0.211628,-0.248682 -0.192325,-0.185549 -0.338217,-0.266162 -0.542735,-0.299893 -0.09465,-0.01561 -0.171102,-0.01961 -0.371949,-0.01948 -0.198717,1.33e-4 -0.268546,0.004 -0.351563,0.01932 -0.05991,0.01108 -0.09392,0.02213 -0.148828,0.04836 -0.174699,0.08345 -0.349296,0.22835 -0.497977,0.413272 -0.08141,0.101253 -0.151511,0.221652 -0.196268,0.337082 -0.048,0.123797 -0.05247,0.193653 -0.0352,0.549805 l 0.0025,0.05176 h -0.684188 -0.684188 l 5.4e-5,-0.276368 c 9.4e-5,-0.448437 0.0024,-0.468036 0.09159,-0.764648 0.04176,-0.138958 0.06177,-0.210256 0.08306,-0.295967 0.01314,-0.05289 0.01381,-0.05821 0.0081,-0.06394 -0.0087,-0.0087 -0.01304,-0.0048 -0.02857,0.02608 -0.108915,0.216277 -0.203443,0.514021 -0.24364,0.767419 -0.02544,0.160349 -0.03343,0.268909 -0.03345,0.454101 v 0.153321 h -1.251134 -1.251134 l 0.0025,-0.102539 c 0.01048,-0.429241 -0.08071,-0.857527 -0.265312,-1.246018 -0.02552,-0.0537 -0.03134,-0.06183 -0.03885,-0.05432 -0.0095,0.0095 0.01307,0.109284 0.07881,0.349159 0.09498,0.346614 0.112744,0.436025 0.116895,0.588455 0.0038,0.141379 -0.0051,0.448522 -0.01346,0.462054 -0.0011,0.0018 -0.306644,0.0032 -0.678997,0.0032 h -0.677005 z m 4.18522,-1.346415 c -0.01028,-0.006 -0.184855,-0.01182 -0.486328,-0.01631 -0.342859,-0.0051 -2.009818,-0.0022 -2.199219,0.0039 -0.165112,0.0053 -0.222516,0.0086 -0.216184,0.01263 0.0029,0.0018 0.658274,0.0033 1.456419,0.0033 0.826312,-3.6e-5 1.448648,-0.0015 1.445312,-0.0035 z"
     id="path1842" />
  <path
     style="opacity:0.75;fill:#ffffff;stroke-width:0.00390625"
     d="m 15.885742,16.303843 c 0.0059,-8.95e-4 0.01558,-8.95e-4 0.02149,0 0.0059,8.95e-4 0.0011,0.0016 -0.01074,0.0016 -0.01182,0 -0.01665,-7.32e-4 -0.01074,-0.0016 z"
     id="path1881" />
  <path
     style="opacity:0.75;fill:#ffffff;stroke-width:0.00390625"
     d="m 10.271458,19.155273 c -6.7e-5,-0.02737 -0.0081,-0.208678 -0.01175,-0.264648 -0.01676,-0.258176 -0.04945,-0.383397 -0.140087,-0.536563 -0.05211,-0.08807 -0.116282,-0.167396 -0.2153057,-0.266171 -0.096129,-0.09589 -0.1995427,-0.178526 -0.2814345,-0.224894 l -0.038898,-0.02202 v -0.778262 -0.778262 l 0.088522,-0.0026 c 0.1261679,-0.0037 0.8354512,-0.0032 1.7317912,0.0013 0.424316,0.0021 1.166113,0.0056 1.648437,0.0078 3.200668,0.01469 3.790448,0.02306 4.283203,0.06077 0.293887,0.02249 0.456897,0.05553 0.623916,0.12645 0.06471,0.02747 0.236129,0.111268 0.246156,0.120323 0.0064,0.0058 0.0068,0.05977 0.0066,0.979202 -1.25e-4,0.581768 -0.0016,0.969927 -0.0037,0.965256 -0.0019,-0.0043 -0.01071,-0.02627 -0.01949,-0.04883 -0.05698,-0.146391 -0.171811,-0.303755 -0.325426,-0.445957 -0.201692,-0.186709 -0.356152,-0.263889 -0.580743,-0.290185 -0.09166,-0.01073 -0.297821,-0.0157 -0.439453,-0.0106 -0.215306,0.0078 -0.279804,0.0208 -0.398399,0.08054 -0.1365,0.06875 -0.259744,0.164076 -0.386988,0.299313 -0.135338,0.143839 -0.227908,0.288477 -0.288972,0.451514 -0.03116,0.08319 -0.04373,0.182072 -0.03916,0.307954 0.0054,0.149469 0.01027,0.258431 0.01194,0.268554 l 0.0018,0.01074 -0.686425,-1.2e-5 -0.686427,-1.2e-5 -0.0011,-0.165026 c -0.0012,-0.182519 0.0047,-0.463722 0.01095,-0.524401 0.0091,-0.08822 0.02656,-0.165413 0.06826,-0.302734 0.04952,-0.163056 0.06604,-0.220875 0.08643,-0.302384 0.02147,-0.08583 0.02434,-0.109728 0.01319,-0.109728 -0.0062,0 -0.0332,0.05124 -0.06484,0.123047 -0.164306,0.37286 -0.245222,0.782048 -0.234246,1.18457 l 0.0026,0.09668 H 13.000009 11.74761 l 0.0026,-0.09473 c 0.01169,-0.4216 -0.07606,-0.844816 -0.25574,-1.233398 -0.03169,-0.06852 -0.03866,-0.07959 -0.04692,-0.07443 -0.0048,0.003 -0.0043,0.01046 0.0035,0.05166 0.01075,0.05693 0.02004,0.09367 0.07745,0.305978 0.04544,0.168065 0.06912,0.26034 0.08271,0.322265 0.03497,0.159359 0.04055,0.282318 0.02721,0.59961 -0.0021,0.04941 -0.0048,0.09731 -0.0061,0.106445 l -0.0023,0.0166 h -0.679244 -0.679244 l -2.7e-5,-0.01074 z m 4.154323,-1.406751 c 0.02148,-0.0024 0.01936,-0.0028 -0.02539,-0.0054 -0.181052,-0.01049 -0.414215,-0.01256 -1.402344,-0.01245 -0.982426,1.04e-4 -1.244855,0.0024 -1.402344,0.01253 -0.03965,0.0025 -0.0424,0.0031 -0.02344,0.0052 0.02978,0.0032 2.824536,0.0033 2.853515,1.48e-4 z"
     id="path1920" />
  <path
     style="opacity:0.75;fill:#ffffff;stroke-width:0.00390625"
     d="m 10.271484,19.156371 c 0,-0.08008 -0.01602,-0.342903 -0.02569,-0.421507 C 10.217209,18.502593 10.138253,18.339877 9.9594298,18.144726 9.854015,18.029685 9.7252173,17.922445 9.6181641,17.860578 l -0.03418,-0.01975 V 17.06264 16.284451 l 0.088522,-0.0026 c 0.126372,-0.0037 0.8222029,-0.0032 1.7415569,0.0013 0.436132,0.0021 1.182324,0.0056 1.658203,0.0079 2.860838,0.0133 3.482073,0.0203 4.005859,0.0451 0.483484,0.0229 0.691367,0.05788 0.90625,0.152479 0.05949,0.02619 0.213372,0.102539 0.221634,0.109963 0.0064,0.0058 0.0068,0.05972 0.0066,0.979171 -1.25e-4,0.583213 -0.0016,0.969938 -0.0037,0.965256 -0.0019,-0.0043 -0.01,-0.02451 -0.01781,-0.04492 -0.05139,-0.133576 -0.147466,-0.271317 -0.284726,-0.408203 -0.07839,-0.07818 -0.147336,-0.135832 -0.222727,-0.186253 -0.127325,-0.08515 -0.241127,-0.12653 -0.400645,-0.145666 -0.08545,-0.01025 -0.30451,-0.01544 -0.440098,-0.01042 -0.133971,0.005 -0.167832,0.0081 -0.234469,0.02173 -0.05836,0.01194 -0.09069,0.02368 -0.161116,0.05852 -0.131502,0.06505 -0.234645,0.142905 -0.363402,0.274308 -0.143757,0.146709 -0.235234,0.281474 -0.302145,0.445121 -0.04124,0.100854 -0.05055,0.15554 -0.05049,0.29656 3.9e-5,0.0958 0.0071,0.294299 0.01119,0.313477 l 0.0019,0.0088 h -0.687574 -0.687574 l 4.6e-5,-0.174805 c 5.5e-5,-0.199071 0.0059,-0.451991 0.0118,-0.512695 0.0091,-0.0933 0.0254,-0.163647 0.07826,-0.337891 0.05397,-0.177895 0.08923,-0.309601 0.09588,-0.358123 0.003,-0.0218 -0.0038,-0.0286 -0.01445,-0.01451 -0.01139,0.01504 -0.06077,0.123903 -0.09549,0.210523 -0.07538,0.188072 -0.132649,0.397328 -0.163559,0.597656 -0.02437,0.157925 -0.03129,0.25474 -0.03135,0.438476 l -5.1e-5,0.151368 h -1.250147 -1.250148 l -2.96e-4,-0.155274 c -3.19e-4,-0.166934 -0.0051,-0.244971 -0.02313,-0.377994 -0.0389,-0.286909 -0.121925,-0.565979 -0.243965,-0.820009 -0.01853,-0.03857 -0.02524,-0.04907 -0.03138,-0.04907 -0.0048,0 -0.0078,0.0026 -0.0078,0.0068 4e-6,0.02057 0.02915,0.141963 0.07433,0.30957 0.07929,0.294152 0.100793,0.384177 0.114976,0.481341 0.0095,0.06476 0.01467,0.194568 0.01198,0.297956 -0.0032,0.123816 -0.0094,0.269312 -0.01233,0.290039 l -0.0023,0.0166 h -0.679244 -0.679244 z m 4.13086,-1.407815 0.03906,-0.0025 -0.04297,-0.0029 C 14.244774,17.732926 13.985551,17.730609 13,17.730704 c -0.978953,9.4e-5 -1.254488,0.0025 -1.398437,0.01244 l -0.04297,0.003 0.03711,0.0022 c 0.05188,0.003 2.758741,0.0033 2.806641,2.8e-4 z"
     id="path1959" />
  <path
     style="opacity:0.75;fill:#ffffff;stroke-width:0.00390625"
     d="m 18.109375,16.540469 c -0.217426,-0.104708 -0.31248,-0.135966 -0.501953,-0.165064 -0.371936,-0.05712 -0.96116,-0.07229 -3.283203,-0.08452 -0.44043,-0.0023 -0.832422,-0.0046 -0.871094,-0.0051 -0.03867,-4.69e-4 0.42627,-0.0012 1.033203,-0.0016 2.011338,-0.0013 2.690798,0.007 2.945389,0.0362 0.147592,0.01692 0.349703,0.07054 0.536782,0.142409 0.108137,0.04154 0.217838,0.09066 0.233649,0.104606 0.0079,0.007 0.0091,0.0166 0.002,0.01642 -0.0027,-6.8e-5 -0.04531,-0.01959 -0.09473,-0.04339 z"
     id="path1998" />
  <path
     style="opacity:0.75;fill:#ffffff;stroke-width:0.00390625"
     d="m 18.109375,16.540397 c -0.212539,-0.101996 -0.303538,-0.132689 -0.478516,-0.161398 -0.340204,-0.05582 -0.893991,-0.07318 -2.6875,-0.08428 -0.383496,-0.0024 -0.852832,-0.0058 -1.042968,-0.0076 -0.224378,-0.0021 0.16016,-0.0027 1.095703,-0.0017 1.763077,0.0019 2.126549,0.0066 2.396484,0.03143 0.135631,0.01246 0.282254,0.04592 0.462891,0.105614 0.10446,0.03452 0.286631,0.109145 0.330617,0.13543 0.01951,0.01166 0.02994,0.0264 0.0183,0.02587 -0.0028,-1.3e-4 -0.0456,-0.01964 -0.09501,-0.04335 z"
     id="path2037" />
  <path
     style="opacity:0.75;fill:#ffffff;stroke-width:0.00390625"
     d="m 18.117187,16.544446 c -0.200988,-0.09617 -0.2805,-0.125382 -0.412746,-0.15164 -0.342335,-0.06797 -0.844329,-0.08557 -2.798191,-0.09811 -0.37168,-0.0024 -0.827832,-0.0058 -1.013672,-0.0076 -0.216915,-0.0021 0.17748,-0.0027 1.101563,-0.0017 2.214119,0.0023 2.371813,0.0067 2.644531,0.07399 0.14819,0.03654 0.280784,0.08096 0.433417,0.14521 0.065,0.02736 0.10901,0.04851 0.126153,0.06062 0.01105,0.0078 0.01453,0.01889 0.0059,0.01863 -0.0027,-7.9e-5 -0.0418,-0.01781 -0.08691,-0.03939 z"
     id="path2076" />
  <path
     style="opacity:0.75;fill:#ffffff;stroke-width:0.00390625"
     d="m 10.269986,19.118164 c -0.0013,-0.02632 -0.0042,-0.08828 -0.0064,-0.137695 -0.01031,-0.222673 -0.02567,-0.334651 -0.06097,-0.444359 C 10.159733,18.402995 10.076039,18.269204 9.9563921,18.142578 9.8399294,18.019323 9.739187,17.935059 9.6289063,17.86866 l -0.042969,-0.02587 -9.861e-4,-0.779181 -9.862e-4,-0.779181 0.061533,-0.0026 c 0.089148,-0.0037 0.945517,-0.0031 1.84669,0.0013 0.429687,0.0021 1.177636,0.0056 1.662109,0.0078 2.798738,0.01273 3.510427,0.02145 4.005859,0.04906 0.406242,0.02264 0.612542,0.05761 0.792321,0.134293 0.08529,0.03638 0.238224,0.111517 0.253532,0.12456 0.0064,0.0055 0.0068,0.05947 0.0069,0.978552 3.9e-5,0.535021 -6.42e-4,0.972023 -0.0015,0.971115 -8.68e-4,-9.07e-4 -0.0099,-0.02274 -0.02004,-0.04853 -0.02216,-0.05628 -0.03706,-0.08646 -0.07003,-0.141826 -0.110632,-0.185837 -0.324908,-0.395058 -0.51192,-0.499844 -0.09505,-0.05326 -0.200693,-0.08525 -0.332031,-0.100538 -0.150226,-0.01749 -0.519977,-0.01496 -0.626953,0.0043 -0.116862,0.02104 -0.21184,0.06137 -0.330079,0.140182 -0.07323,0.04881 -0.127469,0.09307 -0.198153,0.161691 -0.156919,0.152343 -0.264247,0.302739 -0.332781,0.466319 -0.04621,0.110296 -0.05317,0.145715 -0.05585,0.284169 -0.0019,0.09739 0.0039,0.307437 0.0093,0.338867 l 0.0022,0.0127 H 15.056556 14.36804 l 0.0024,-0.290039 c 0.0027,-0.318994 0.0055,-0.387466 0.01988,-0.47168 0.01224,-0.07187 0.02474,-0.119905 0.07048,-0.270908 0.04385,-0.144761 0.06727,-0.230018 0.08471,-0.308415 0.01086,-0.0488 0.012,-0.05837 0.0073,-0.06127 -0.003,-0.0019 -0.0067,-0.0027 -0.0081,-0.0019 -0.0037,0.0023 -0.04344,0.08394 -0.06569,0.135099 -0.161607,0.371457 -0.241058,0.781175 -0.228861,1.180198 l 0.0027,0.08887 H 12.9999 11.74694 l 0.0026,-0.08301 c 0.01253,-0.394676 -0.06351,-0.799077 -0.21833,-1.161133 -0.05843,-0.136641 -0.07869,-0.172641 -0.08619,-0.15311 -0.0026,0.0068 0.01796,0.104209 0.03687,0.174594 0.0084,0.03115 0.03225,0.119922 0.05307,0.197266 0.07011,0.26048 0.09373,0.366121 0.104371,0.466797 0.0092,0.08722 0.0038,0.506244 -0.0072,0.549805 l -0.0022,0.0088 H 10.951061 10.27219 Z M 14.3125,17.749136 c 0.152762,-0.0036 0.129836,-0.0059 -0.132812,-0.01333 -0.136485,-0.0039 -0.440188,-0.0052 -1.183594,-0.0051 -0.947557,1.47e-4 -1.249366,0.0028 -1.390625,0.01243 -0.04182,0.0028 -0.04072,0.003 0.04101,0.005 0.135837,0.0033 2.529246,0.0042 2.666016,0.001 z"
     id="path2115" />
  <path
     style="opacity:0.75;fill:#ffffff;stroke-width:0.00390625"
     d=""
     id="path2154" />
  <path
     style="opacity:0.75;fill:#ffffff;stroke-width:0.00390625"
     d="m 14.327663,19.070312 c 8e-6,-0.02578 6.4e-4,-0.03582 0.0014,-0.02231 7.65e-4,0.01351 7.59e-4,0.0346 -1.4e-5,0.04687 -7.73e-4,0.01227 -0.0014,0.0012 -0.0014,-0.02457 z"
     id="path2232" />
  <path
     style="opacity:0.75;fill:#ffffff;stroke-width:0.00390625"
     d="m 16.896484,21.722041 c -0.19269,-0.01008 -0.358305,-0.03429 -0.533203,-0.07795 -0.743548,-0.185613 -1.366349,-0.660565 -1.739672,-1.326686 -0.243579,-0.434618 -0.366879,-0.945478 -0.344981,-1.429342 0.01254,-0.277091 0.05775,-0.51834 0.145059,-0.774079 0.02307,-0.06758 0.114726,-0.301483 0.116293,-0.296782 0.0013,0.0038 -0.03957,0.125686 -0.100261,0.299376 -0.08795,0.251693 -0.101194,0.313859 -0.10956,0.514374 -0.0049,0.116615 -0.0049,0.532301 -8e-5,0.684741 0.0078,0.244774 0.02119,0.311517 0.110542,0.549537 0.168268,0.448228 0.329134,0.692487 0.69077,1.048867 0.130239,0.128347 0.220424,0.206831 0.341265,0.29699 0.283194,0.211288 0.571663,0.341869 0.908998,0.411475 0.180728,0.03729 0.343301,0.05502 0.579283,0.06318 0.405422,0.01401 0.677267,-0.0321 1.010226,-0.171378 0.190492,-0.07968 0.406657,-0.189346 0.510381,-0.258926 0.02208,-0.01481 0.04097,-0.02693 0.04199,-0.02693 10e-4,0 0.0018,0.0048 0.0018,0.01074 -7.4e-5,0.0091 -0.005,0.014 -0.03223,0.03195 -0.370189,0.244321 -0.791502,0.395665 -1.223545,0.43952 -0.115298,0.0117 -0.273683,0.01651 -0.373047,0.01131 z"
     id="path2271" />
  <path
     style="opacity:0.75;fill:#ffffff;stroke-width:0.00390625"
     d=""
     id="path2310" />
  <path
     style="opacity:0.75;fill:#ffffff;stroke-width:0.00390625"
     d="m 16.830078,21.716305 c -0.563397,-0.04135 -1.103673,-0.254944 -1.539062,-0.608453 -0.405717,-0.329416 -0.708692,-0.768013 -0.873218,-1.264102 -0.123221,-0.371542 -0.163894,-0.740232 -0.124538,-1.128906 0.01878,-0.185492 0.05885,-0.374556 0.117298,-0.553522 0.0278,-0.08511 0.09602,-0.264623 0.09815,-0.258244 7.09e-4,0.0021 -0.02494,0.08017 -0.05699,0.173441 -0.125206,0.3643 -0.125545,0.366707 -0.125533,0.892231 1.2e-5,0.534122 0.0077,0.607564 0.08681,0.826172 0.176426,0.487701 0.335913,0.740089 0.691875,1.094894 0.19499,0.194356 0.349511,0.320891 0.533803,0.437121 0.273143,0.172267 0.567695,0.277452 0.916015,0.327108 0.148816,0.02122 0.280301,0.03074 0.470704,0.03409 0.452322,0.008 0.734079,-0.05928 1.189453,-0.2839 0.11456,-0.05651 0.203179,-0.105124 0.263445,-0.144524 0.0225,-0.01471 0.04241,-0.02582 0.04424,-0.02469 0.01097,0.0068 -0.02481,0.03338 -0.130492,0.09701 -0.37419,0.225282 -0.794374,0.357509 -1.222112,0.384583 -0.07438,0.0047 -0.27398,0.0045 -0.339844,-3.05e-4 z"
     id="path2349" />
  <path
     style="opacity:0.75;fill:#ffffff;stroke-width:0.00390625"
     d="m 16.96875,21.682925 c -0.82747,-0.02391 -1.359936,-0.264596 -1.939221,-0.876585 -0.296678,-0.313426 -0.437036,-0.541961 -0.595988,-0.970403 -0.066,-0.177893 -0.08742,-0.26803 -0.09436,-0.396951 -0.0014,-0.02538 -0.0037,-0.04541 -0.0051,-0.04452 -0.005,0.0031 -0.0021,-0.80096 0.0031,-0.851493 0.0071,-0.06937 0.01539,-0.12412 0.02613,-0.171618 0.0053,-0.02327 0.0087,-0.04368 0.0077,-0.04536 -10e-4,-0.0017 -7e-5,-0.0037 0.0022,-0.0044 0.0022,-7.41e-4 0.0044,-0.0066 0.0049,-0.01303 4.75e-4,-0.0064 0.0018,-0.01256 0.003,-0.01363 0.0012,-0.0011 0.01993,-0.05381 0.04163,-0.117188 0.07634,-0.222945 0.110589,-0.318184 0.10815,-0.300781 -0.0034,0.02413 -0.05216,0.193241 -0.09521,0.330078 -0.08782,0.279133 -0.09581,0.350783 -0.08645,0.775391 0.01316,0.596966 0.02042,0.656917 0.105604,0.872028 0.125179,0.316103 0.256902,0.548287 0.429392,0.756878 0.12305,0.148804 0.315349,0.341759 0.486903,0.488566 0.387783,0.331843 0.746843,0.48239 1.265625,0.530651 0.199828,0.01859 0.566216,0.02691 0.710937,0.01615 0.249394,-0.01854 0.425881,-0.07002 0.738281,-0.215361 0.168343,-0.07832 0.275549,-0.138234 0.42895,-0.239738 l 0.01098,-0.0073 -0.0012,0.01916 -0.0012,0.01916 -0.05078,0.03365 c -0.116877,0.07744 -0.343634,0.190559 -0.544922,0.271825 -0.306579,0.123776 -0.568614,0.166073 -0.958984,0.154795 z"
     id="path2388" />
  <path
     style="opacity:0.75;fill:#ffffff;stroke-width:0.00390625"
     d="m 16.773437,21.710595 c -0.455967,-0.04427 -0.893494,-0.198937 -1.269531,-0.44878 -0.159992,-0.106301 -0.271887,-0.197441 -0.409504,-0.333545 -0.268913,-0.265957 -0.467784,-0.562436 -0.610867,-0.910692 -0.04123,-0.100354 -0.101497,-0.278926 -0.09784,-0.289903 8.41e-4,-0.0025 0.0087,0.01641 0.01755,0.04207 0.0088,0.02566 0.02932,0.08132 0.04559,0.123687 0.162163,0.422463 0.319367,0.661291 0.656385,0.997191 0.258493,0.257635 0.464201,0.412419 0.719006,0.541009 0.351862,0.177571 0.744343,0.257747 1.261718,0.257744 0.369852,-2e-6 0.610311,-0.05124 0.960938,-0.204746 0.130064,-0.05694 0.334937,-0.163717 0.448929,-0.233967 0.01273,-0.0078 0.02416,-0.01322 0.02539,-0.01195 0.0041,0.0042 -0.03028,0.03063 -0.08082,0.06222 -0.376086,0.23506 -0.78135,0.371943 -1.213811,0.409983 -0.08648,0.0076 -0.373562,0.0074 -0.453125,-3.22e-4 z"
     id="path2427" />
</svg>
