<?xml version="1.0" encoding="UTF-8" standalone="no"?>
<svg
   width="24px"
   height="24px"
   viewBox="0 0 24 24"
   fill="none"
   version="1.1"
   id="svg4"
   sodipodi:docname="inbox.svg"
   inkscape:version="1.1 (c4e8f9ed74, 2021-05-24)"
   xmlns:inkscape="http://www.inkscape.org/namespaces/inkscape"
   xmlns:sodipodi="http://sodipodi.sourceforge.net/DTD/sodipodi-0.dtd"
   xmlns="http://www.w3.org/2000/svg"
   xmlns:svg="http://www.w3.org/2000/svg">
  <defs
     id="defs8" />
  <sodipodi:namedview
     id="namedview6"
     pagecolor="#ffffff"
     bordercolor="#666666"
     borderopacity="1.0"
     inkscape:pageshadow="2"
     inkscape:pageopacity="0.0"
     inkscape:pagecheckerboard="0"
     showgrid="false"
     inkscape:zoom="27.5"
     inkscape:cx="12.927273"
     inkscape:cy="13.872727"
     inkscape:window-width="1920"
     inkscape:window-height="1050"
     inkscape:window-x="1920"
     inkscape:window-y="0"
     inkscape:window-maximized="1"
     inkscape:current-layer="svg4" />
  <path
     d="M3 12V18C3 19.1046 3.89543 20 5 20H19C20.1046 20 21 19.1046 21 18V12M3 12L5.75667 4.64888C5.90304 4.25857 6.27616 4 6.693 4H17.307C17.7238 4 18.097 4.25857 18.2433 4.64888L21 12M3 12H8.5L10 15H14L16 12H21"
     stroke="#001A72"
     stroke-width="1.5"
     stroke-linecap="round"
     stroke-linejoin="round"
     id="path2" />
  <path
     style="opacity:0.75;fill:#ffffff;stroke-width:0.0363636"
     d="M 4.6603824,20.704298 C 4.0597037,20.627117 3.5028951,20.348873 3.0727273,19.910928 2.7828551,19.615815 2.6118553,19.35849 2.4665363,18.998716 2.2731092,18.519839 2.2740388,18.538712 2.2733587,15.076513 L 2.2727273,11.862116 3.6775492,8.1128764 C 4.4502012,6.0507944 5.1196869,4.2892621 5.1652951,4.1983601 5.3460741,3.8380488 5.7185353,3.5184164 6.1483902,3.3547047 L 6.3636364,3.2727273 H 12 17.636364 l 0.215246,0.081977 c 0.429855,0.1637117 0.802316,0.4833441 0.983095,0.8436554 0.04561,0.090902 0.715094,1.8524343 1.487746,3.9145163 l 1.404822,3.74924 -6.33e-4,3.214397 c -6.8e-4,3.462199 2.55e-4,3.443326 -0.193178,3.922203 -0.145319,0.359774 -0.316318,0.617099 -0.606191,0.912212 -0.451498,0.45966 -0.973012,0.712832 -1.640891,0.796577 -0.375744,0.04711 -14.2580535,0.04407 -14.6259991,-0.0032 z M 19.462272,19.17738 c 0.15616,-0.05726 0.267487,-0.134885 0.431517,-0.300894 0.384217,-0.388853 0.358632,-0.157059 0.370678,-3.358304 l 0.01043,-2.772727 H 18.3286 16.382299 L 15.477623,14.1 C 14.98005,14.845 14.53381,15.490583 14.485977,15.534628 14.27491,15.728982 14.296965,15.727273 12,15.727273 c -2.3243895,0 -2.2763084,0.0041 -2.5036785,-0.21102 C 9.4341542,15.457448 9.1247262,14.88312 8.7234982,14.081818 L 8.0543542,12.745455 H 5.8897265 3.725099 l 0.010434,2.772727 c 0.011962,3.178769 -0.011021,2.960028 0.3511303,3.341954 0.1478243,0.155896 0.2645175,0.239885 0.4224279,0.304041 l 0.2181818,0.08864 7.262272,8.62e-4 7.262272,8.62e-4 0.210455,-0.07717 z M 14.53897,12.874344 c 0.843079,-1.262971 0.950213,-1.408224 1.106342,-1.5 l 0.17287,-0.101617 2.05807,-0.01818 2.05807,-0.01818 L 18.795677,8.2 C 18.169422,6.53 17.630459,5.0937923 17.597982,5.0084273 17.565505,4.9230624 17.514686,4.8289715 17.485051,4.7993364 17.437932,4.7522173 16.749493,4.7454545 12,4.7454545 c -4.7494935,0 -5.4379316,0.00676 -5.4850505,0.053882 -0.029635,0.029635 -0.080454,0.123726 -0.1129313,0.2090909 C 6.3695411,5.0937923 5.8305787,6.53 5.2043242,8.2 l -1.1386445,3.036364 2.3126148,0.01818 c 2.5377815,0.01995 2.4007215,0.0074 2.6358808,0.242079 0.057964,0.05785 0.3979454,0.691847 0.7720669,1.43974 l 0.6684948,1.336363 h 1.57538 1.57538 z"
     id="path899" />
  <path
     style="opacity:0.75;fill:#ffffff;stroke-width:0.0363636"
     d="M 4.5952556,20.670447 C 3.761651,20.546748 2.9259001,19.928064 2.5674037,19.169283 2.3162978,18.6378 2.3357125,18.920853 2.2988907,15.254545 L 2.265474,11.927273 3.5377073,8.5454545 C 5.1028035,4.3851556 5.1678159,4.2182009 5.2958311,4.0305164 5.4500909,3.8043543 5.7105863,3.5955033 6.0390193,3.4346687 L 6.3325844,3.2909091 H 12 17.667416 l 0.293904,0.142258 c 0.324275,0.1569579 0.586231,0.3677146 0.743326,0.5980427 0.127619,0.1871119 0.194478,0.3590037 1.755837,4.5142447 l 1.270741,3.3818185 -0.03151,3.309091 -0.03151,3.309091 -0.100417,0.290909 c -0.29786,0.862909 -0.958249,1.496426 -1.846752,1.771606 l -0.266496,0.08254 -7.327272,0.0052 C 8.0972667,20.69851 4.707859,20.68721 4.5952496,20.67049 Z M 19.500579,19.182441 c 0.209349,-0.09489 0.503326,-0.350096 0.608098,-0.527896 0.04714,-0.08 0.102904,-0.240202 0.123916,-0.356004 0.02405,-0.132546 0.03873,-1.088846 0.03961,-2.58125 7.75e-4,-1.303885 0.0118,-2.505955 0.02451,-2.671268 l 0.0231,-0.300568 h -1.979515 -1.979514 l -0.792979,1.179342 c -0.955949,1.421715 -1.084114,1.599879 -1.210447,1.682656 -0.08499,0.05569 -0.232672,0.06757 -1.11855,0.08996 -1.015477,0.02567 -2.989316,0.0085 -3.3609212,-0.02928 C 9.7244218,15.652534 9.6573735,15.623903 9.56206,15.533257 9.4401582,15.417324 9.016788,14.640175 8.3949665,13.390909 L 8.0736916,12.745455 H 5.8769331 3.6801745 l 0.023379,0.336363 c 0.012858,0.185 0.024016,1.391818 0.024795,2.681818 0.00154,2.554903 0.00949,2.672098 0.1997874,2.9467 0.1316004,0.189899 0.3540314,0.373976 0.5645446,0.4672 0.1592928,0.07054 0.278609,0.07171 7.5073195,0.07345 7.185664,0.0017 7.348829,2.55e-4 7.500579,-0.06854 z M 14.436364,13.06921 c 0.904292,-1.357539 1.053584,-1.559386 1.245718,-1.684245 l 0.1361,-0.08845 2.066577,-0.02596 c 1.876384,-0.02357 2.065054,-0.03136 2.05004,-0.08462 -0.03781,-0.134138 -2.32508,-6.2059119 -2.371923,-6.2964965 -0.0281,-0.054344 -0.07758,-0.1089719 -0.10996,-0.1213956 -0.07695,-0.029528 -10.8288847,-0.029528 -10.9058324,0 -0.032375,0.012424 -0.081857,0.067052 -0.1099596,0.1213956 -0.046744,0.090393 -2.3340325,6.1621095 -2.3718273,6.2961285 -0.014893,0.05281 0.1898884,0.06082 2.1767837,0.08512 1.2062727,0.01475 2.2829065,0.04142 2.3925196,0.05926 0.1523451,0.02479 0.226736,0.06043 0.3157709,0.151246 0.1252007,0.12771 0.50738,0.829617 1.1091161,2.036991 l 0.376053,0.754545 1.600412,-0.0013 1.600412,-0.0013 0.8,-1.200974 z"
     id="path896" />
  <path
     style="opacity:0.75;fill:#ffffff;stroke-width:0.0363636"
     d="M 4.4181818,20.616327 C 4.0878985,20.545594 3.5741716,20.280995 3.2719739,20.025965 2.956168,19.75945 2.7472346,19.486478 2.5593566,19.09493 2.4399323,18.846043 2.4087885,18.733807 2.380754,18.451284 2.3620785,18.263078 2.3315054,16.720622 2.3128139,15.023604 L 2.2788292,11.938117 3.3624311,9.0599676 C 4.8899344,5.0027743 5.066303,4.5421588 5.2044531,4.2492243 5.3601596,3.9190631 5.6082215,3.6870322 6.0487069,3.4595304 L 6.3751887,3.2909091 h 5.6250513 5.625051 l 0.306359,0.1518068 c 0.407982,0.202163 0.706787,0.4750383 0.850951,0.7771059 0.134556,0.2819382 0.613386,1.5356438 1.936808,5.0710873 l 1.000482,2.6727269 -0.03548,3.304252 -0.03548,3.304252 -0.107725,0.282105 C 21.207955,19.72694 20.593751,20.306524 19.694,20.59733 19.460972,20.67265 19.452783,20.67272 12.057637,20.66984 5.8778871,20.66744 4.6154931,20.65859 4.4181878,20.61633 Z M 19.646373,19.114333 c 0.241101,-0.154712 0.488199,-0.428238 0.551061,-0.610001 0.03723,-0.107654 0.05561,-0.670168 0.07827,-2.395241 0.01629,-1.24 0.03455,-2.504242 0.04059,-2.809426 l 0.01098,-0.554881 -2,0.0094 -2,0.0094 -0.353861,0.527273 c -0.924706,1.377863 -1.4541,2.139475 -1.553018,2.234244 -0.105892,0.101451 -0.121221,0.104548 -0.682541,0.137874 -0.315819,0.01875 -1.327614,0.02802 -2.248434,0.02059 C 9.8935789,15.670751 9.8093135,15.666707 9.6894193,15.597252 9.5212247,15.499817 9.2994411,15.126355 8.6275036,13.809091 L 8.0849422,12.745455 H 5.8785851 3.6722284 l 0.011014,0.536363 c 0.00606,0.295 0.025008,1.559091 0.04211,2.809091 0.020585,1.504511 0.045038,2.318307 0.072343,2.407572 0.074652,0.244051 0.4925393,0.640964 0.75736,0.719347 0.054719,0.0162 3.4298616,0.02699 7.5003166,0.02399 l 7.400827,-0.0055 z m -5.29554,-5.88706 c 0.836382,-1.25467 1.143487,-1.675479 1.322296,-1.811863 l 0.134336,-0.102463 1.841722,-0.03316 c 1.012947,-0.01824 1.943995,-0.03095 2.068995,-0.02824 0.170142,0.0037 0.227273,-0.0075 0.227273,-0.04468 0,-0.02729 -0.423537,-1.177266 -0.941194,-2.5555097 C 17.737804,5.2794464 17.584568,4.8830894 17.519121,4.809912 17.466369,4.7509288 17.129673,4.7470968 12,4.7470968 c -5.1296735,0 -5.4663687,0.00383 -5.5191211,0.062815 -0.065032,0.072714 -0.2090785,0.4453173 -1.4849446,3.8410884 -0.5177639,1.3780508 -0.9413888,2.5283168 -0.9413888,2.5561488 0,0.03892 0.056673,0.04899 0.2454545,0.04363 0.5463286,-0.01553 4.2911785,0.08209 4.4155273,0.115101 0.2374091,0.06303 0.3430887,0.22945 1.1473687,1.806851 l 0.560864,1.1 h 1.615079 1.615078 z"
     id="path935" />
</svg>
