<?xml version="1.0" encoding="UTF-8" standalone="no"?>
<svg
   width="24px"
   height="24px"
   viewBox="0 0 24 24"
   fill="none"
   version="1.1"
   id="svg4"
   sodipodi:docname="menu.svg"
   inkscape:version="1.1 (c4e8f9ed74, 2021-05-24)"
   xmlns:inkscape="http://www.inkscape.org/namespaces/inkscape"
   xmlns:sodipodi="http://sodipodi.sourceforge.net/DTD/sodipodi-0.dtd"
   xmlns="http://www.w3.org/2000/svg"
   xmlns:svg="http://www.w3.org/2000/svg">
  <defs
     id="defs8" />
  <sodipodi:namedview
     id="namedview6"
     pagecolor="#ffffff"
     bordercolor="#666666"
     borderopacity="1.0"
     inkscape:pageshadow="2"
     inkscape:pageopacity="0.0"
     inkscape:pagecheckerboard="0"
     showgrid="false"
     inkscape:zoom="27.5"
     inkscape:cx="11.8"
     inkscape:cy="11.945455"
     inkscape:window-width="1920"
     inkscape:window-height="1050"
     inkscape:window-x="1920"
     inkscape:window-y="0"
     inkscape:window-maximized="1"
     inkscape:current-layer="svg4" />
  <path
     d="M4 7H20M4 12H20M4 17H20"
     stroke="#001A72"
     stroke-width="1.5"
     stroke-linecap="round"
     stroke-linejoin="round"
     id="path2" />
  <path
     style="opacity:0.75;fill:#ffffff;fill-opacity:1;stroke-width:0.0363636"
     d="m 3.7272727,17.669384 c -0.2040794,-0.08826 -0.3603848,-0.265188 -0.422235,-0.477945 -0.049961,-0.171861 -0.049961,-0.211017 0,-0.382878 0.062942,-0.216514 0.2203207,-0.391925 0.430158,-0.479445 0.120768,-0.05037 1.0027612,-0.05639 8.2648043,-0.05639 7.262043,0 8.144036,0.006 8.264804,0.05639 0.209837,0.08752 0.367216,0.262931 0.430158,0.479445 0.04996,0.171861 0.04996,0.211017 0,0.382878 -0.06294,0.216514 -0.220321,0.391925 -0.430158,0.479445 -0.120804,0.05039 -1.001413,0.05624 -8.272727,0.05496 -7.1835939,-0.0013 -8.1524513,-0.0079 -8.2648043,-0.05646 z"
     id="path8793" />
  <path
     style="opacity:0.75;fill:#ffffff;fill-opacity:1;stroke-width:0.0363636"
     d="M 3.8277835,12.70941 C 3.5037102,12.611299 3.2753247,12.318031 3.2753247,12 c 0,-0.25289 0.1411724,-0.49115 0.3710963,-0.626306 l 0.1717608,-0.100967 h 8.1846702 8.184669 l 0.178967,0.110581 c 0.479762,0.296438 0.479764,0.936941 4e-6,1.233384 l -0.178963,0.110581 -8.130128,0.0061 c -4.4715708,0.0034 -8.1748985,-0.0074 -8.2296175,-0.02399 z"
     id="path8832" />
  <path
     style="opacity:0.75;fill:#ffffff;fill-opacity:1;stroke-width:0.0363636"
     d="M 3.7272727,7.6693839 C 3.5231933,7.5811247 3.3668879,7.4041964 3.3050377,7.1914391 3.2550763,7.019578 3.2550763,6.980422 3.3050377,6.8085609 3.36798,6.5920469 3.5253584,6.4166361 3.7351957,6.3291157 3.8559637,6.2787449 4.7379569,6.2727273 12,6.2727273 c 7.262043,0 8.144036,0.00602 8.264804,0.056388 0.209837,0.08752 0.367216,0.2629312 0.430158,0.4794452 0.04996,0.1718611 0.04996,0.2110171 0,0.3828782 -0.06294,0.216514 -0.220321,0.3919248 -0.430158,0.4794452 -0.120804,0.050386 -1.001413,0.056237 -8.272727,0.054965 -7.1835939,-0.00126 -8.1524513,-0.00788 -8.2648043,-0.056466 z"
     id="path8871" />
  <path
     style="opacity:0.75;fill:#ffffff;stroke-width:0.0363636"
     d="M 3.8085093,17.658849 C 3.5469444,17.609327 3.2925063,17.284452 3.2925063,17 c 0,-0.289403 0.226037,-0.576997 0.518238,-0.65937 0.2210001,-0.0623 16.1575117,-0.0623 16.3785117,0 0.292201,0.08237 0.518238,0.369967 0.518238,0.65937 0,0.281962 -0.22562,0.576872 -0.499532,0.652945 -0.147391,0.04094 -16.1839391,0.04671 -16.3994527,0.0059 z"
     id="path861" />
  <path
     style="opacity:0.75;fill:#ffffff;stroke-width:0.0363636"
     d="m 3.7371718,12.649567 c -0.2428035,-0.119708 -0.443753,-0.413609 -0.4454641,-0.651518 -0.0014,-0.194324 0.165674,-0.471529 0.3589351,-0.595545 l 0.1739061,-0.111595 h 8.1778841 8.177883 l 0.167039,0.113987 c 0.255689,0.174481 0.343554,0.32668 0.343554,0.595104 0,0.268424 -0.08787,0.420623 -0.343554,0.595105 l -0.167039,0.113986 -8.162885,-8.28e-4 c -7.3897206,-7.5e-4 -8.1740029,-0.0063 -8.2802592,-0.0587 z"
     id="path937" />
  <path
     style="opacity:0.75;fill:#ffffff;stroke-width:0.0363636"
     d="M 3.8085093,7.6588494 C 3.5469444,7.6093267 3.2925063,7.2844519 3.2925063,7 c 0,-0.2894029 0.226037,-0.5769969 0.518238,-0.6593704 0.2210001,-0.062301 16.1575117,-0.062301 16.3785117,0 0.292201,0.082374 0.518238,0.3699675 0.518238,0.6593704 0,0.2819615 -0.22562,0.5768724 -0.499532,0.6529452 -0.147391,0.040934 -16.1839391,0.046708 -16.3994527,0.0059 z"
     id="path976" />
</svg>
