<?xml version="1.0" encoding="UTF-8" standalone="no"?>
<svg
   width="24px"
   height="24px"
   viewBox="0 0 24 24"
   fill="none"
   version="1.1"
   id="svg6"
   sodipodi:docname="settings.svg"
   inkscape:version="1.1 (c4e8f9ed74, 2021-05-24)"
   xmlns:inkscape="http://www.inkscape.org/namespaces/inkscape"
   xmlns:sodipodi="http://sodipodi.sourceforge.net/DTD/sodipodi-0.dtd"
   xmlns="http://www.w3.org/2000/svg"
   xmlns:svg="http://www.w3.org/2000/svg">
  <defs
     id="defs10" />
  <sodipodi:namedview
     id="namedview8"
     pagecolor="#ffffff"
     bordercolor="#666666"
     borderopacity="1.0"
     inkscape:pageshadow="2"
     inkscape:pageopacity="0.0"
     inkscape:pagecheckerboard="0"
     showgrid="false"
     inkscape:zoom="27.5"
     inkscape:cx="11.909091"
     inkscape:cy="11.981818"
     inkscape:window-width="1920"
     inkscape:window-height="1050"
     inkscape:window-x="1920"
     inkscape:window-y="0"
     inkscape:window-maximized="1"
     inkscape:current-layer="svg6" />
  <path
     d="M10 4C10 3.44772 10.4477 3 11 3H13C13.5523 3 14 3.44772 14 4V4.56879C14 4.99659 14.2871 5.36825 14.6822 5.53228C15.0775 5.69638 15.5377 5.63384 15.8403 5.33123L16.2426 4.92891C16.6331 4.53838 17.2663 4.53838 17.6568 4.92891L19.071 6.34312C19.4616 6.73365 19.4616 7.36681 19.071 7.75734L18.6688 8.1596C18.3661 8.46223 18.3036 8.92247 18.4677 9.31774C18.6317 9.71287 19.0034 10 19.4313 10L20 10C20.5523 10 21 10.4477 21 11V13C21 13.5523 20.5523 14 20 14H19.4312C19.0034 14 18.6318 14.2871 18.4677 14.6822C18.3036 15.0775 18.3661 15.5377 18.6688 15.8403L19.071 16.2426C19.4616 16.6331 19.4616 17.2663 19.071 17.6568L17.6568 19.071C17.2663 19.4616 16.6331 19.4616 16.2426 19.071L15.8403 18.6688C15.5377 18.3661 15.0775 18.3036 14.6822 18.4677C14.2871 18.6317 14 19.0034 14 19.4312V20C14 20.5523 13.5523 21 13 21H11C10.4477 21 10 20.5523 10 20V19.4313C10 19.0034 9.71287 18.6317 9.31774 18.4677C8.92247 18.3036 8.46223 18.3661 8.1596 18.6688L7.75732 19.071C7.36679 19.4616 6.73363 19.4616 6.34311 19.071L4.92889 17.6568C4.53837 17.2663 4.53837 16.6331 4.92889 16.2426L5.33123 15.8403C5.63384 15.5377 5.69638 15.0775 5.53228 14.6822C5.36825 14.2871 4.99659 14 4.56879 14H4C3.44772 14 3 13.5523 3 13V11C3 10.4477 3.44772 10 4 10L4.56877 10C4.99658 10 5.36825 9.71288 5.53229 9.31776C5.6964 8.9225 5.63386 8.46229 5.33123 8.15966L4.92891 7.75734C4.53838 7.36681 4.53838 6.73365 4.92891 6.34313L6.34312 4.92891C6.73365 4.53839 7.36681 4.53839 7.75734 4.92891L8.15966 5.33123C8.46228 5.63386 8.9225 5.6964 9.31776 5.53229C9.71288 5.36825 10 4.99658 10 4.56876V4Z"
     stroke="#001A72"
     stroke-width="1.5"
     id="path2" />
  <path
     d="M14 12C14 13.1046 13.1046 14 12 14C10.8954 14 10 13.1046 10 12C10 10.8954 10.8954 10 12 10C13.1046 10 14 10.8954 14 12Z"
     stroke="#001A72"
     stroke-width="1.5"
     id="path4" />
  <path
     style="opacity:0.75;fill:#ffffff;stroke-width:0.0363636"
     d="M 10.573256,21.671215 C 10.005016,21.518181 9.5565389,21.100478 9.361404,20.542519 9.30588,20.383757 9.2795967,20.189257 9.2612447,19.801329 L 9.2363636,19.275386 9.1128044,19.192238 C 8.8990898,19.048422 8.8153931,19.075153 8.4747538,19.396014 8.3072189,19.553822 8.0936996,19.735533 8.0002669,19.799816 7.5049625,20.140595 6.8321753,20.179956 6.2647462,19.901352 6.0732571,19.807332 5.8889095,19.641764 5.1235729,18.876427 4.3582365,18.111091 4.1926677,17.926743 4.0986479,17.735254 3.8200442,17.167825 3.8594053,16.495037 4.2001837,15.999733 4.2644671,15.9063 4.4461781,15.692781 4.6039859,15.525246 4.9248473,15.184607 4.9515776,15.10091 4.8077617,14.887196 l -0.083147,-0.12356 -0.5259435,-0.02488 C 3.8107428,14.720403 3.6162433,14.69412 3.4574809,14.638596 2.891669,14.440715 2.4782106,13.991805 2.3269697,13.411153 c -0.078696,-0.302137 -0.078696,-2.520169 0,-2.822306 C 2.4782106,10.008195 2.891669,9.5592855 3.4574809,9.361404 3.6162433,9.30588 3.8107428,9.2795967 4.1986708,9.2612447 L 4.7246143,9.2363636 4.8077617,9.1128044 C 4.9515776,8.8990898 4.9248473,8.8153931 4.6039859,8.4747538 4.2508492,8.0998498 4.1051398,7.8913887 4.0095291,7.6242855 3.916265,7.3637382 3.887988,6.967724 3.9435406,6.7001287 4.0350895,6.2591396 4.152023,6.0979345 5.0154616,5.222372 5.8839044,4.341735 6.1256251,4.138056 6.446372,4.0166561 6.7365975,3.9068085 7.1704076,3.8839815 7.4727273,3.9626494 7.8082364,4.0499537 8.0251345,4.1859377 8.4285538,4.5619043 8.820824,4.9274804 8.8951909,4.9542012 9.1128044,4.8077617 L 9.2363636,4.7246143 9.2612447,4.1986708 C 9.2795967,3.8107428 9.30588,3.6162433 9.361404,3.4574809 9.5592855,2.891669 10.008195,2.4782106 10.588847,2.3269697 c 0.302137,-0.078696 2.520169,-0.078696 2.822306,0 0.580652,0.1512409 1.029562,0.5646993 1.227443,1.1305112 0.05552,0.1587624 0.08181,0.3532619 0.100159,0.7411899 l 0.02488,0.5259435 0.12356,0.083147 c 0.213714,0.1438159 0.297411,0.1170856 0.63805,-0.2037758 0.374904,-0.3531367 0.583365,-0.4988461 0.850469,-0.5944568 0.260547,-0.093264 0.656561,-0.1215411 0.924156,-0.065989 0.440989,0.091549 0.602194,0.2084824 1.477757,1.071921 0.447695,0.4414961 0.884401,0.8972242 0.970458,1.0127286 0.203006,0.2724738 0.308754,0.5592585 0.333002,0.9030858 0.03902,0.5532938 -0.125428,0.9406956 -0.629172,1.4821876 -0.380331,0.4088295 -0.406943,0.4805004 -0.259678,0.6993408 l 0.08315,0.1235592 0.525943,0.024881 c 0.387928,0.018352 0.582428,0.044635 0.74119,0.1001593 0.565812,0.1978815 0.97927,0.646791 1.130511,1.227443 0.0787,0.302137 0.0787,2.520169 0,2.822306 -0.151241,0.580652 -0.564699,1.029562 -1.130511,1.227443 -0.158762,0.05552 -0.353262,0.08181 -0.74119,0.100159 l -0.525943,0.02488 -0.08315,0.12356 c -0.147265,0.21884 -0.120653,0.290511 0.259678,0.69934 0.503744,0.541492 0.668192,0.928894 0.629172,1.482188 -0.02425,0.343827 -0.129996,0.630612 -0.333002,0.903086 -0.08606,0.115504 -0.522763,0.571232 -0.970458,1.012729 -0.875563,0.863438 -1.036768,0.980372 -1.477757,1.07192 -0.267595,0.05555 -0.663609,0.02728 -0.924156,-0.06599 -0.267104,-0.09561 -0.475565,-0.24132 -0.850469,-0.594457 -0.340639,-0.320861 -0.424336,-0.347592 -0.63805,-0.203776 l -0.12356,0.08315 -0.02488,0.525943 c -0.01835,0.387928 -0.04463,0.582428 -0.100159,0.74119 -0.197881,0.565812 -0.646791,0.97927 -1.227443,1.130511 -0.292195,0.07611 -2.55393,0.07466 -2.837897,-0.0018 z m 2.547316,-1.440295 c 0.124201,-0.06537 0.132784,-0.09763 0.134048,-0.503647 0.0026,-0.846413 0.253675,-1.369508 0.845984,-1.762779 0.295889,-0.196459 0.545192,-0.277657 0.921713,-0.3002 0.587771,-0.03519 0.95492,0.127015 1.509364,0.666838 0.244629,0.238178 0.336294,0.305232 0.417263,0.305232 0.08669,0 0.234056,-0.130293 0.895591,-0.791829 0.661536,-0.661535 0.791829,-0.808902 0.791829,-0.895591 0,-0.08097 -0.06705,-0.172634 -0.305232,-0.417263 -0.539823,-0.554444 -0.70203,-0.921593 -0.666838,-1.509364 0.02369,-0.395731 0.107187,-0.636725 0.337384,-0.973822 0.376316,-0.551071 0.898487,-0.791301 1.725595,-0.793875 0.21,-6.55e-4 0.399823,-0.01321 0.421829,-0.0279 0.110881,-0.07404 0.123625,-0.200495 0.123625,-1.226716 0,-1.026221 -0.01274,-1.152678 -0.123625,-1.226716 -0.02201,-0.01469 -0.195466,-0.02709 -0.385466,-0.02755 -0.486804,-0.0012 -0.778625,-0.05528 -1.073844,-0.199097 -0.403468,-0.196555 -0.762308,-0.5977975 -0.930821,-1.0408131 -0.116627,-0.3066054 -0.133533,-0.7971225 -0.03826,-1.1099622 0.101942,-0.334728 0.24525,-0.552488 0.610418,-0.9275458 0.238178,-0.2446291 0.305232,-0.3362942 0.305232,-0.4172625 0,-0.08669 -0.130293,-0.234056 -0.791829,-0.8955917 -0.652643,-0.6526433 -0.809639,-0.7918283 -0.893156,-0.7918283 -0.07828,0 -0.181918,0.077119 -0.455698,0.3391086 C 16.109927,6.0718854 15.832673,6.2381086 15.480705,6.311257 15.204249,6.368712 14.740162,6.335961 14.49417,6.241635 14.049696,6.0711993 13.649705,5.7132467 13.45336,5.3102081 13.30867,5.013202 13.255204,4.7219539 13.25482,4.2286893 13.254404,3.6934928 13.33894,3.7272727 12,3.7272727 c -1.33894,0 -1.254404,-0.03378 -1.25482,0.5014166 C 10.744795,4.7219539 10.69133,5.013202 10.54664,5.3102081 10.350295,5.7132467 9.9503036,6.0711993 9.5058269,6.2416338 9.2598349,6.3359596 8.7957476,6.3687113 8.5192916,6.311256 8.167324,6.2381076 7.8900702,6.0718844 7.5043185,5.702745 7.2305385,5.4407553 7.1269055,5.3636364 7.0486211,5.3636364 c -0.083517,0 -0.2405131,0.139185 -0.8931564,0.7918283 -0.6526433,0.6526433 -0.7918283,0.8096397 -0.7918283,0.8931564 0,0.078382 0.07784,0.1826713 0.3437343,0.4605313 0.3668068,0.3833141 0.4960704,0.5929414 0.5889137,0.9550421 0.075382,0.2940019 0.050591,0.7688073 -0.054388,1.0416324 C 6.0706222,9.950944 5.7130604,10.350385 5.3102081,10.54664 5.013202,10.69133 4.7219539,10.744796 4.2286893,10.74518 3.6934928,10.745596 3.7272727,10.66106 3.7272727,12 c 0,1.347341 -0.039889,1.25424 0.5377802,1.255177 0.6828631,0.0011 1.1275202,0.151939 1.4841735,0.503446 0.3661463,0.360863 0.5566489,0.758139 0.58655,1.223195 0.038407,0.597356 -0.1211626,0.978959 -0.6330314,1.513863 -0.2619897,0.27378 -0.3391086,0.377414 -0.3391086,0.455698 0,0.08352 0.139185,0.240513 0.7918283,0.893156 0.6526433,0.652644 0.8096397,0.791829 0.8931564,0.791829 0.078382,0 0.1826713,-0.07784 0.4605313,-0.343735 0.3753323,-0.359168 0.5678621,-0.480637 0.9275578,-0.585203 0.2783003,-0.08091 0.7851571,-0.05647 1.0691167,0.05154 0.4430156,0.168513 0.8442581,0.527353 1.0408131,0.930821 0.14382,0.295219 0.197925,0.58704 0.199097,1.073844 8.76e-4,0.364123 0.01056,0.399612 0.12699,0.465639 0.102286,0.058 2.137945,0.05949 2.247845,0.0016 z"
     id="path864" />
  <path
     style="opacity:0.75;fill:#ffffff;stroke-width:0.0363636"
     d="m 11.109091,21.690694 c -0.576359,-0.02657 -0.709512,-0.0625 -1.045508,-0.28211 -0.375071,-0.245155 -0.6601448,-0.672882 -0.7336925,-1.100838 -0.018777,-0.10926 -0.045004,-0.390577 -0.058281,-0.625149 l -0.024141,-0.426494 -0.1189353,-0.07351 c -0.2408378,-0.148846 -0.3136178,-0.116962 -0.8897789,0.389791 -0.437828,0.385085 -0.7693989,0.505071 -1.3071626,0.473024 -0.3391389,-0.02021 -0.5485094,-0.08733 -0.8043189,-0.257867 -0.09,-0.06 -0.5495323,-0.495275 -1.0211828,-0.967285 -0.7861927,-0.786792 -0.8693996,-0.882183 -1,-1.146435 -0.1418714,-0.287057 -0.1424535,-0.290026 -0.1424535,-0.726485 0,-0.414942 0.00601,-0.450935 0.1130371,-0.676792 0.06217,-0.131199 0.217625,-0.357518 0.3454546,-0.502931 0.5129151,-0.583468 0.5444251,-0.65482 0.3955527,-0.8957 L 4.7444526,14.753431 4.299499,14.727631 C 3.7308384,14.694658 3.5423281,14.658822 3.2728848,14.532471 2.9343622,14.373727 2.6635331,14.102267 2.4857666,13.743519 L 2.3353402,13.439946 2.299861,12.724396 C 2.2768814,12.26094 2.276799,11.753802 2.2996272,11.284922 l 0.035245,-0.723924 0.1506602,-0.304045 C 2.6635462,9.8977069 2.9341842,9.6263567 3.2728848,9.4675287 3.5423281,9.3411778 3.7308384,9.3053422 4.299499,9.2723691 l 0.4449536,-0.0258 0.073228,-0.1184858 c 0.040276,-0.065167 0.073228,-0.1683229 0.073228,-0.2292349 0,-0.1130648 -0.02908,-0.1542906 -0.4847586,-0.6872306 C 4.0579405,7.8043684 3.9466426,7.5187618 3.9458861,7.0305124 3.9453269,6.6694225 4.0407776,6.3650091 4.2380474,6.0987476 4.3227391,5.9844364 4.7620068,5.5213119 5.214198,5.0695819 5.9668927,4.3176547 6.0607855,4.23623 6.3253869,4.1059456 6.6130578,3.9643022 6.6164604,3.9636364 7.0526596,3.9636364 c 0.6144789,0 0.6729655,0.029029 1.5396117,0.7641756 0.2193854,0.1860971 0.3459094,0.207235 0.5362618,0.089591 L 9.2474684,4.7438969 9.2716095,4.317403 C 9.30368,3.7508176 9.3437429,3.5368639 9.4669731,3.274072 9.6262931,2.9343187 9.897336,2.6637301 10.256721,2.4856476 l 0.303814,-0.1505454 0.714633,-0.03614 c 0.47157,-0.023848 0.960978,-0.023941 1.438912,-2.745e-4 l 0.724277,0.035866 0.304367,0.15082 c 0.359971,0.1783725 0.630885,0.4487366 0.790303,0.788699 0.12323,0.2627919 0.163293,0.4767455 0.195364,1.0433309 l 0.02414,0.4264939 0.118935,0.073506 c 0.190352,0.117644 0.316876,0.096506 0.536262,-0.089591 0.811879,-0.6886893 0.921191,-0.7476549 1.435926,-0.7745789 0.450364,-0.023557 0.733645,0.051088 1.040512,0.2741775 0.123708,0.089935 0.594745,0.5337404 1.046749,0.9862352 0.753518,0.7543367 0.833612,0.8467357 0.963636,1.1116844 0.141048,0.2874113 0.141812,0.2913287 0.141812,0.7279134 0,0.4202808 -0.0049,0.4489709 -0.116212,0.6746699 -0.06392,0.1296476 -0.21119,0.3473145 -0.327273,0.4837043 -0.459492,0.5398717 -0.483788,0.574384 -0.483788,0.6872306 0,0.060912 0.03295,0.1640676 0.07323,0.2292349 l 0.07323,0.1184858 0.444954,0.0258 c 0.244724,0.01419 0.526701,0.040869 0.626614,0.059286 0.503708,0.092851 0.971257,0.4649771 1.206446,0.9602194 l 0.131996,0.277946 0.03503,0.719512 c 0.02254,0.462986 0.02246,0.97306 -2.19e-4,1.430665 -0.03524,0.710799 -0.03533,0.71129 -0.167026,0.988613 -0.234946,0.494729 -0.702727,0.866922 -1.206215,0.959733 -0.09991,0.01842 -0.38189,0.0451 -0.626615,0.05929 l -0.444953,0.0258 -0.07323,0.118486 c -0.147504,0.238665 -0.117411,0.309237 0.373297,0.875427 0.135589,0.156446 0.299226,0.391551 0.363636,0.522456 0.112293,0.228217 0.117111,0.256069 0.117111,0.676956 0,0.436585 -7.64e-4,0.440503 -0.141812,0.727914 -0.1301,0.265103 -0.209677,0.356842 -0.963636,1.110906 -0.452004,0.452067 -0.915352,0.891335 -1.029663,0.976151 -0.266097,0.197437 -0.570464,0.292946 -0.931765,0.292387 C 16.480292,20.05336 16.185619,19.93557 15.761608,19.571288 15.159707,19.054176 15.112574,19.033595 14.871479,19.1826 l -0.118935,0.07351 -0.02414,0.426494 c -0.01328,0.234572 -0.0395,0.515889 -0.05828,0.625149 -0.08861,0.515624 -0.458319,0.986626 -0.962303,1.225966 -0.273211,0.129748 -0.289264,0.132669 -0.883945,0.16083 -0.676599,0.03204 -0.949442,0.03143 -1.714771,-0.0038 z m 2.064539,-1.481603 c 0.06236,-0.05466 0.07803,-0.138314 0.111097,-0.593231 0.04043,-0.55615 0.108278,-0.816351 0.287038,-1.100825 0.151506,-0.241104 0.448904,-0.49322 0.770861,-0.653488 l 0.306262,-0.152456 h 0.458907 c 0.456457,0 0.460356,7.2e-4 0.730102,0.134928 0.18136,0.09023 0.391649,0.243798 0.63483,0.463593 0.263705,0.238344 0.389913,0.328678 0.459253,0.328709 0.113128,3.6e-5 0.513048,-0.341316 1.071144,-0.914313 0.497197,-0.510472 0.633248,-0.680684 0.633197,-0.79219 -3e-5,-0.06662 -0.09443,-0.197884 -0.328709,-0.457091 -0.219795,-0.243181 -0.373361,-0.45347 -0.463593,-0.63483 -0.134075,-0.269479 -0.134928,-0.27408 -0.134928,-0.727273 0,-0.437864 0.0047,-0.46591 0.116605,-0.702245 0.243039,-0.513086 0.5956,-0.851247 1.056168,-1.013032 0.136722,-0.04803 0.397403,-0.08823 0.753477,-0.116208 0.524357,-0.0412 0.546166,-0.04613 0.591437,-0.133684 0.06648,-0.12857 0.0496,-2.253594 -0.01855,-2.335609 -0.03471,-0.04177 -0.162135,-0.06242 -0.508243,-0.08239 -0.254059,-0.01465 -0.550973,-0.04984 -0.659811,-0.07819 -0.501955,-0.130743 -0.957311,-0.521173 -1.199642,-1.0285955 -0.129412,-0.2709767 -0.13144,-0.2822672 -0.13144,-0.7316552 0,-0.4526393 0.0011,-0.4586818 0.133878,-0.7272728 0.09104,-0.1841789 0.239392,-0.3869745 0.463636,-0.633785 0.238936,-0.2629815 0.329759,-0.3891484 0.329759,-0.4580873 0,-0.1271633 -0.322868,-0.5012775 -0.970669,-1.1247367 C 17.115963,5.4160565 17.015374,5.3427592 16.88421,5.3756791 16.83744,5.3874171 16.64391,5.5374366 16.454136,5.7090565 16.228044,5.91352 16.015679,6.0676 15.83813,6.1559967 c -0.269282,0.1340677 -0.273793,0.1349044 -0.727273,0.1349044 -0.449249,0 -0.460569,-0.00203 -0.731535,-0.1314396 C 14.033484,5.9943065 13.672142,5.6640465 13.515288,5.3697587 13.359608,5.0776726 13.299453,4.8056511 13.277479,4.2943713 13.263322,3.9649989 13.245,3.8475972 13.200865,3.8034622 13.150225,3.752822 12.997704,3.7454545 12,3.7454545 c -1.019263,0 -1.149427,0.00657 -1.203607,0.06075 -0.04748,0.047483 -0.06406,0.1507208 -0.07591,0.4727273 -0.01966,0.5342701 -0.06184,0.7394723 -0.214876,1.0453847 -0.165712,0.331246 -0.5098499,0.6560253 -0.8849285,0.835153 -0.270965,0.1294054 -0.2822854,0.1314396 -0.7315345,0.1314396 -0.45348,0 -0.4579913,-8.364e-4 -0.7272727,-0.1349044 C 7.9847262,6.0678095 7.772144,5.9136938 7.5478931,5.7108893 7.1814255,5.3794697 7.1197804,5.3439425 6.9744669,5.380414 6.8626055,5.4084894 5.421838,6.8375451 5.3834487,6.9584993 c -0.045523,0.1434305 0.0052,0.2347265 0.3268388,0.5882705 0.2090878,0.2298287 0.3570867,0.4335298 0.4466605,0.6147698 0.1328611,0.2688262 0.1339611,0.2748008 0.1339611,0.7274837 0,0.449388 -0.00203,0.4606785 -0.1314396,0.7316552 -0.165163,0.3458379 -0.495423,0.7071795 -0.7897108,0.8640335 -0.292462,0.155881 -0.5651651,0.216856 -1.0717904,0.239648 -0.2361174,0.01062 -0.4457632,0.02949 -0.4658794,0.04192 -0.090996,0.05624 -0.1097162,0.265625 -0.1102745,1.233404 -5.621e-4,0.974884 0.017658,1.176799 0.1114208,1.234748 0.020747,0.01282 0.2303924,0.0318 0.4658794,0.04217 0.7454825,0.03283 1.1231995,0.179985 1.502344,0.585292 0.3849265,0.411488 0.5287938,0.808837 0.5012723,1.384471 -0.013745,0.287497 -0.032369,0.362577 -0.1477964,0.595837 -0.079374,0.160401 -0.2314898,0.375709 -0.3812432,0.539618 -0.3330285,0.364509 -0.4100549,0.468837 -0.4100549,0.555402 0,0.04008 0.092191,0.185551 0.2048689,0.323277 0.242084,0.295899 1.2333176,1.263015 1.3683503,1.335058 0.143404,0.07651 0.2440844,0.02952 0.5599295,-0.261316 0.5902538,-0.54352 0.8600894,-0.660154 1.4705585,-0.635637 0.3494306,0.01403 0.4109462,0.02755 0.6570422,0.144426 0.3418389,0.162338 0.7037992,0.493538 0.8603262,0.787213 0.154488,0.28985 0.214831,0.558915 0.244166,1.088726 0.022,0.397351 0.03312,0.45213 0.101461,0.5 0.06361,0.04455 0.264616,0.05376 1.173724,0.05376 0.992836,0 1.103862,-0.006 1.169567,-0.06364 z"
     id="path940" />
  <path
     style="opacity:0.75;fill:#ffffff;stroke-width:0.0363636"
     d="M 11.674898,14.706663 C 10.779602,14.602845 9.9764415,14.029473 9.5644126,13.2 9.358928,12.78633 9.283418,12.463861 9.283418,12 c 0,-0.461185 0.075114,-0.783307 0.2798238,-1.2 C 9.8326777,10.251553 10.244045,9.8405751 10.8,9.5644126 11.21367,9.358928 11.536139,9.283418 12,9.283418 c 0.461057,0 0.783187,0.075086 1.2,0.279712 0.723574,0.3552236 1.274428,1.044011 1.457613,1.8226 0.07658,0.325462 0.07632,0.903727 -5.53e-4,1.232452 -0.179885,0.769277 -0.737281,1.46497 -1.45706,1.818576 -0.490537,0.240987 -0.998791,0.330935 -1.525102,0.269905 z m 0.871078,-1.561352 C 12.77687,13.033676 13.032416,12.77863 13.14701,12.545455 13.22383,12.389145 13.23636,12.31262 13.23636,12 c 0,-0.430677 -0.0739,-0.62247 -0.3439,-0.892464 -0.269994,-0.269995 -0.461787,-0.3439 -0.892464,-0.3439 -0.31262,0 -0.389145,0.01254 -0.545455,0.08935 -0.232462,0.114243 -0.488136,0.369964 -0.598854,0.598963 -0.115216,0.238304 -0.142217,0.658001 -0.06002,0.932955 0.108688,0.363573 0.438953,0.701921 0.800559,0.820152 0.237956,0.0778 0.729165,0.0469 0.949747,-0.05975 z"
     id="path979" />
  <path
     style="opacity:0.75;fill:#ffffff;stroke-width:0.0363636"
     d="M 11.456445,14.649015 C 10.480224,14.439794 9.7054546,13.710079 9.3957709,12.708174 9.2760306,12.320784 9.2759645,11.680024 9.3956246,11.290909 9.6080115,10.600262 10.094268,9.9790704 10.672727,9.6594139 11.143371,9.3993358 11.45441,9.3172657 11.981818,9.3139993 c 0.377707,-0.00234 0.500649,0.011411 0.727273,0.081339 0.582564,0.1797598 1.133984,0.5613825 1.467341,1.0155067 0.35614,0.485158 0.507583,0.959301 0.507583,1.589155 0,0.628788 -0.151521,1.104101 -0.505834,1.586771 -0.615524,0.838512 -1.73218,1.274324 -2.721736,1.062244 z m 1.004387,-1.454251 c 0.205968,-0.06116 0.533708,-0.346811 0.675474,-0.588715 0.08171,-0.139422 0.09967,-0.219541 0.111894,-0.498997 0.02202,-0.503396 -0.04495,-0.693142 -0.353529,-1.001723 -0.308581,-0.308581 -0.498327,-0.375546 -1.001723,-0.35353 -0.399196,0.01746 -0.561933,0.09637 -0.850946,0.412591 -0.224953,0.246135 -0.296559,0.456105 -0.296519,0.869483 2.4e-5,0.246825 0.01643,0.328063 0.103332,0.51176 0.123083,0.26017 0.43923,0.566829 0.66876,0.648692 0.194898,0.06951 0.709862,0.06975 0.943257,4.4e-4 z"
     id="path1018" />
</svg>
